<svg xmlns="http://www.w3.org/2000/svg" xmlns:xlink="http://www.w3.org/1999/xlink" viewBox="0 0 1920 1080"><defs><style>.cls-1{fill:#fff;}.cls-2{clip-path:url(#clip-path);}.cls-3{fill:#e2d3b0;fill-rule:evenodd;}.cls-4{fill:#0a130b;}.cls-5{fill:#232620;}.cls-6{fill:#a1acb4;}.cls-7{fill:#5b0101;}.cls-8{fill:#ffcd00;}.cls-9{fill:#00458b;}</style><clipPath id="clip-path"><rect id="SVGID" class="cls-1" x="-63.59" y="-13.01" width="2049.06" height="1092.83" transform="translate(1921.88 1066.81) rotate(180)"/></clipPath></defs><title>Background</title><g id="BACKGROUND"><rect id="SVGID-2" data-name="SVGID" class="cls-1" x="-63.59" y="-13.01" width="2049.06" height="1092.83" transform="translate(1921.88 1066.81) rotate(180)"/><g class="cls-2"><path class="cls-3" d="M-149,22.93v3.49q25.91,14.69,51.82,29.32c1.24.7,2.37,1.59,4.24,2.88-2.18,1.25-3.71,2.15-5.24,3q-25.42,14.3-50.82,28.6v3.58q25.65-15.09,51.28-30.25c1.7-1,3.4-2,5.74-3.32.17,2.44.38,4,.35,5.63-.31,28.68-.74,57.36-.89,86,0,4-1.33,6.28-4.8,8.31q-25.9,15.08-51.68,30.38v2.19Q-122.5,177.92-96,163c3.42-2,6.06-2.2,9.62-.15,25.07,14.36,50.26,28.5,75.4,42.72,1.26.71,2.43,1.58,4.54,2.95C-10.85,211-14.32,213-17.83,215c-22.77,12.8-45.58,25.53-68.28,38.45-3.41,1.93-6,2.27-9.6.19q-26.57-15.24-53.28-30.23V226c21.53,12.33,48.72,28.54,56,33.72q.43,47.61.88,95.84c-2.84-.56-33.14-17.85-56.88-32v3.1q25.16,14.25,50.33,28.47c1.55.88,3,1.88,5.15,3.21-1.92,1.29-3.18,2.27-4.55,3L-149,390v2.87q25.23-14.83,50.42-29.75c1.71-1,3.43-2,5.8-3.34.16,2.38.39,4,.36,5.55-.3,28.87-.69,57.73-.93,86.59,0,3.23-.64,5.45-3.72,7.25q-26,15.16-51.93,30.5v2.86q26.53-14.88,53-29.85c3-1.73,5.39-2,8.62-.16,25.21,14.43,50.54,28.66,75.82,43,1.25.69,2.41,1.53,4.09,2.64-1.64,1.11-2.73,2-3.94,2.68q-38.23,21.49-76.47,43c-2.68,1.52-4.79,1.78-7.64.15q-26.7-15.24-53.5-30.33v2.73q25.94,15.36,51.88,30.69c2.33,1.38,3.42,2.84,3.42,5.65.19,30,.51,60,.77,90,0,.73-.13,1.46-.32,3.46L-149,623.17v3.41l51.12,28.95c1.06.6,2,1.47,3.39,2.49-1.84,1.19-3.14,2.14-4.52,2.91l-50,28.13v3.33q18.3-10.74,36.62-21.48c6.05-3.55,12.17-7,19.2-11.08.08,2.55.23,4.33.21,6.12-.32,28.5-.73,57-.9,85.55,0,4-1.32,6.3-4.78,8.33q-25.24,14.7-50.35,29.62v2.14q26.57-14.91,53.11-29.85c2.29-1.3,4.21-1.69,6.67-.3q39.31,22.38,78.71,44.62A23,23,0,0,1-8.07,808c-2.29,1.31-3.86,2.24-5.47,3.14-24.68,13.88-49.41,27.67-74,41.72-3.73,2.13-6.43,2.07-10.12-.06q-25.6-14.7-51.34-29.17v2.76q25.25,15,50.51,29.91c2.5,1.48,4.25,2.83,4.26,6.31.11,29.79.46,59.61.72,89.42,0,.91-.11,1.83-.21,3.29a22.5,22.5,0,0,1-3.56-1.24q-25.87-15.3-51.72-30.62v3.43q24.75,14,49.52,28c1.38.8,2.66,1.78,4.63,3.09-2.21,1.29-3.76,2.2-5.33,3.07q-24.4,13.71-48.82,27.44v2.9q25.91-15.24,51.79-30.52a32,32,0,0,1,3.25-1.38c.09,2.24.22,3.7.22,5.14q-.49,43.64-1,87.24c0,3-.63,5.09-3.52,6.78q-25.43,14.83-50.77,29.84v2.61q26-14.65,52.06-29.33c2.44-1.37,4.47-1.94,7.18-.39q37.05,21.11,74.2,42h5c-15-7.72-72.5-41.44-80.54-47.38q-.4-47.64-.87-95.88c4.4,1.1,75.11,42.45,83.93,49q.44,46.84.87,94.28h1.91c-.08-1.36-.15-2.5-.13-3.6.31-28.52.75-57,.86-85.55,0-4.37,1.53-6.6,5.17-8.7,24.66-14.34,49.2-28.91,73.79-43.38,1.37-.81,2.85-1.46,4.93-2.52.12,2.39.29,4.16.27,5.93-.31,28.52-.71,57-.9,85.55,0,4-1.14,6.34-4.67,8.4-24.66,14.36-49.19,29-73.75,43.46l-.71.41H2.11q36.95-20.72,73.83-41.51c2.83-1.58,5.07-2,8.14-.29,24.53,14,49.15,27.87,73.73,41.8h3.69l-79.23-47c-.3-32.06-.59-64-.88-96.11,4.37,1.16,76.77,43.58,83.72,49,.28,30.88.56,62,.85,94.12h2a15.75,15.75,0,0,1-.22-2.4q.47-44.12,1-88.25c0-2.58.49-4.5,3-6q24.42-14.31,48.76-28.73v0L242,965.35l7.1-4.18c.62-.36,1.33-.7,2.14-1.07l.7-.26a30.29,30.29,0,0,1,.43,4.17c-.3,29.23-.69,58.47-.94,87.7,0,3.07-.71,5.1-3.58,6.76-9.34,5.43-18.65,10.94-28,16.42v.3Q196,1089.27,172,1103.38h3.9L222.85,1077q13.46-7.54,26.92-15.11a14.85,14.85,0,0,1,1.52-.73c.3-.11.6-.22.9-.3l.22,0a5.81,5.81,0,0,1,2.56,0,8.15,8.15,0,0,1,1.88.79c24.54,14,49.18,27.88,73.79,41.8h4.25q-38.08-22.52-76.14-45.06c-2.09-1.24-3.24-2.6-3.25-5.21q-.27-45.54-.72-91.08a18.42,18.42,0,0,1,.34-2.27c1.7.85,3.08,1.48,4.3,2.23q37.29,22,74.56,44.13c2.51,1.49,4.22,2.86,4.23,6.32.12,29.81.46,59.63.73,89.43,0,.47,0,1-.07,1.51h2.63a14,14,0,0,1-.2-2.28c.31-29.41.68-58.83.95-88.26,0-2.59.54-4.49,3-5.94q39.21-22.95,78.3-46.1c.34-.17.77-.36,1.28-.56l.67-.25c.12,1.89.27,3.29.25,4.66-.32,29.05-.7,58.09-1,87.14,0,3-.54,5.12-3.47,6.82-25.41,14.83-50.71,29.84-76.06,44.77h3.34c24.44-13.76,48.92-27.45,73.31-41.3,2.5-1.31,4.66-1.74,7-1.06a11.18,11.18,0,0,1,1.54.68c24.45,14,49,27.8,73.56,41.68h5.65c-13.71-6.75-67.35-38.11-80.76-47.33q-.42-47.68-.86-95.4c2.58.92,11.4,5.66,22.6,12L503.56,1004c3,1.91,5.65,3.61,7.67,5,.3,31.22.59,62.78.88,94.43h2.56a17.81,17.81,0,0,1-.24-2.54c.32-29.27.7-58.52,1-87.78,0-2.17.37-3.88,1.64-5.3l.34-.34a7.71,7.71,0,0,1,1-.74c.36-.25.69-.49,1.09-.73q31.92-18.63,63.77-37.4c3.66-2.16,7.26-4.43,10.95-6.59,1.22-.71,2.59-1.33,4.26-2.14l.3-.12c.09,2.11.21,3.53.21,4.92q-.49,43.64-1,87.24c0,3-.63,5.09-3.52,6.78-25.4,14.81-50.7,29.81-76,44.74h4q36.95-20.82,73.89-41.62a14.7,14.7,0,0,1,1.61-.78l.39-.14a8.52,8.52,0,0,1,.84-.2,5,5,0,0,1,1.89,0,7.1,7.1,0,0,1,1.89.77q37.05,21.11,74.2,42h5.54c-6.26-3.22-19.88-10.94-34.21-19.28h0q-11.43-6.78-22.89-13.49c-9.64-5.77-17.74-10.73-21.71-13.4a7.28,7.28,0,0,1-1.75-3.45q-.4-45.82-.84-92.18c0-.4,0-.77.07-1.21,3.64,1.54,18.44,9.88,34.64,19.29L648.44,987V987c16.73,9.85,32.32,19.31,36.17,22.15q.43,46.84.87,94.28H688c-.08-1.36-.15-2.5-.14-3.6.32-28.52.76-57,.87-85.55,0-4.37,1.53-6.6,5.16-8.7,24.67-14.34,49.21-28.91,73.8-43.38,1.24-.73,2.6-1.35,4.39-2.25.11,2.25.27,4,.25,5.66-.31,28.52-.71,57-.9,85.55,0,4-1.14,6.34-4.67,8.4-24.66,14.36-49.19,29-73.75,43.46l-.71.41h3.08q36.95-20.72,73.83-41.51a9.77,9.77,0,0,1,3.81-1.36,7.16,7.16,0,0,1,3.77,1.07c24.53,14,49.15,27.87,73.73,41.8h4.25c-26.94-16-53-31.42-79.24-47-.3-32-.58-63.88-.87-95.9,8,3.38,76.41,43.53,83.16,48.74.28,30.88.56,62,.85,94.12h2.57a15.8,15.8,0,0,1-.23-2.4q.46-44.12,1-88.25c0-2.58.49-4.5,3-6q39.29-23,78.47-46.23a13.8,13.8,0,0,1,1.78-.71.15.15,0,0,1,0,.07c.12,1.83.27,3.22.26,4.57-.33,29-.72,58.1-.94,87.15,0,3.32-1,5.39-3.93,7.12-25.34,14.79-50.59,29.75-75.87,44.63h4.46Q906,1082.67,942.82,1062a9,9,0,0,1,3.73-1.28,6.93,6.93,0,0,1,3.35,1q36.74,21,73.63,41.71h4.24Q990,1081,952.16,1058.63c-2.25-1.33-3.61-2.68-3.63-5.56-.18-30.18-.48-60.35-.73-90.53,0-.67.15-1.37.33-2.81,2,1.06,3.5,1.82,4.91,2.67,24.55,14.53,49,29.12,73.63,43.54,3.23,1.89,4.58,4,4.6,7.82.11,28.71.44,57.39.69,86.09,0,1.1,0,2.22-.1,3.53h2.66a15.87,15.87,0,0,1-.18-2.34c.31-29.23.68-58.46,1-87.7,0-2.76.39-4.83,3.12-6.44q39.06-22.85,78-45.92a17,17,0,0,1,2.16-1c.11,1.85.25,3.08.24,4.27-.34,29.25-.73,58.48-1,87.71,0,3.07-.74,5.08-3.6,6.74q-38,22.2-75.81,44.63h3.32c24.25-13.63,48.54-27.19,72.71-41a10.79,10.79,0,0,1,5.42-1.68,10.68,10.68,0,0,1,4.63,1.56c24.06,13.85,48.29,27.42,72.45,41.09h5.55c-14.3-7.2-69-39.24-80.52-47.29-.29-31.12-.58-62.62-.88-95.51,1.67.54,6.6,3.1,13.29,6.77l68.79,40.77,1.08.72q.42,47.19.87,94.54h2.56a6.42,6.42,0,0,1-.25-1.6c.3-29.82.71-59.63.93-89.45,0-3.38,1.72-4.9,4.27-6.38q31.92-18.63,63.76-37.4c3.67-2.16,7.27-4.43,11-6.59,1.23-.72,2.6-1.33,4.28-2.15.14,2.09.3,3.63.29,5.14q-.5,43.35-1,86.67a9.29,9.29,0,0,1-.91,4.72.86.86,0,0,1-.07.1,5.5,5.5,0,0,1-1,1.13,7.88,7.88,0,0,1-1.11.85c-.08,0-.13.1-.21.14-25.46,14.85-50.82,29.86-76.19,44.82h4q37-20.85,74-41.69a8,8,0,0,1,3.32-1.14,5.76,5.76,0,0,1,2.8.78q22.66,12.92,45.38,25.74v-.24q14.61,8.26,29.23,16.55h5c-6.18-3.17-19.52-10.74-33.66-19v-.33q-20-11.85-40-23.59l-2.82-1.79c-2.72-1.9-3.79-4.07-3.79-7.66-.09-28.54-.44-57.06-.68-85.59,0-1.57.1-3.14.21-5.1,2.23.94,8.64,4.44,17,9.16q14.78,8.76,29.56,17.52v-.33l.55.33V987c16.74,9.85,32.33,19.31,36.17,22.15q.43,46.84.87,94.28h1.92c-.08-1.36-.15-2.5-.13-3.6.31-28.52.75-57,.86-85.55,0-4.37,1.53-6.6,5.16-8.7,24.67-14.34,49.21-28.91,73.8-43.38,1.37-.81,2.85-1.46,4.93-2.52.12,2.39.29,4.16.27,5.93-.31,28.52-.71,57-.9,85.55,0,4-1.14,6.34-4.68,8.4-24.65,14.36-49.18,29-73.75,43.46l-.7.41H1388q36.94-20.72,73.83-41.51c2.83-1.58,5.07-2,8.14-.29,24.52,14,49.15,27.87,73.73,41.8h3.69c-26.94-16-53-31.42-79.24-47-.3-32.06-.58-64-.87-96.11,4.36,1.16,76.76,43.58,83.72,49,.28,30.88.56,62,.85,94.12h2a15.8,15.8,0,0,1-.23-2.4c.31-29.41.68-58.83,1-88.25,0-2.58.49-4.5,3-6q39.29-23,78.47-46.23a24.45,24.45,0,0,1,2.33-.92c.12,2,.29,3.43.27,4.85-.32,29-.71,58.1-.94,87.15,0,3.32-1,5.39-3.92,7.12-25.34,14.79-50.59,29.75-75.87,44.63h3.9q36.83-20.72,73.66-41.41c2.63-1.48,4.74-2,7.64-.3q36.72,21,73.63,41.71h3.68q-37.82-22.38-75.61-44.75c-2.25-1.33-3.61-2.68-3.63-5.56-.18-30.18-.48-60.35-.73-90.53,0-.71.17-1.43.36-3.09,2.28,1.22,3.9,2,5.44,2.95,24.55,14.53,49,29.12,73.63,43.54,3.23,1.89,4.58,4,4.59,7.82.11,28.71.44,57.39.7,86.09,0,1.1,0,2.22-.1,3.53h2.1a15.87,15.87,0,0,1-.18-2.34q.46-43.85,1-87.7c0-2.76.38-4.83,3.11-6.44q39.06-22.85,78-45.92a27.52,27.52,0,0,1,2.71-1.18c.11,2,.25,3.26.24,4.5-.33,29.25-.72,58.48-1,87.71,0,3.07-.75,5.08-3.6,6.74q-38,22.2-75.81,44.63h2.76c24.25-13.63,48.54-27.19,72.71-41,3.8-2.17,6.68-2.38,10.61-.12,24.06,13.85,48.28,27.42,72.45,41.09h5c-14.3-7.2-69-39.24-80.52-47.29-.3-31.58-.58-63.54-.89-96.95l83.72,49.62q.43,47.22.87,94.62h2a6.42,6.42,0,0,1-.25-1.6c.3-29.82.71-59.63.93-89.45,0-3.38,1.72-4.9,4.27-6.38q31.92-18.63,63.76-37.4c3.67-2.16,7.27-4.43,11-6.59,1.37-.8,2.85-1.43,4.82-2.41.14,2.23.32,3.82.3,5.4q-.48,43.35-1,86.67c0,2.89-.26,5.19-3.26,6.94-25.46,14.85-50.82,29.86-76.19,44.82h3.47q37-20.85,74-41.69c2.28-1.28,4.2-1.76,6.68-.36q22.66,12.92,45.37,25.74v-3q-20.93-12.4-41.92-24.71c-3.51-2.07-4.71-4.32-4.73-8.33-.08-28.54-.43-57.06-.67-85.59,0-1.79.14-3.55.26-5.92,2,1,3.48,1.67,4.87,2.49q21.09,12.5,42.19,25v-3.21q-21.64-12.27-43.3-24.5c-.64-.35-1.2-.84-2.36-1.66A30.09,30.09,0,0,1,1992,955q21.14-11.91,42.27-23.78v-2.71l-44.56,26.24a19.79,19.79,0,0,1-2.31.85c-.09-2-.24-3.45-.22-4.89.32-29,.7-58.09,1-87.14,0-3,.65-5.1,3.53-6.78q21.35-12.47,42.61-25.05v-3.13q-21.49,12.08-42.92,24.27c-3.69,2.11-6.41,2.1-10.11,0-24.71-14.2-49.58-28.13-74.37-42.18-1.41-.79-2.75-1.73-4.67-3,1.39-1,2.3-1.77,3.33-2.34q38.72-21.78,77.43-43.55a6.35,6.35,0,0,1,7.16,0q22,12.54,44.15,25v-2.95l-45.71-27.08c-.29-32-.58-64-.89-97.33l46.6,27.63v-3.2q-20.67-11.7-41.35-23.39c-1.09-.62-2.07-1.41-4-2.73,2.29-1.32,3.7-2.15,5.12-2.94l40.22-22.62v-3.07l-40,23.62c-1.75,1-3.52,2-6.22,3.57-.15-2.63-.32-4.24-.29-5.85.31-28.69.72-57.38.89-86.09,0-4,1.33-6.32,4.81-8.34q20.44-11.92,40.82-24v-2.46q-21.57,12.12-43.15,24.26c-2.63,1.48-4.75,1.92-7.63.27-25.72-14.67-51.53-29.18-77.3-43.77-.92-.52-1.76-1.21-3.16-2.17,1.68-1.14,2.91-2.12,4.27-2.9q38-21.36,76-42.71c2.63-1.48,4.73-2,7.64-.32q21.63,12.36,43.33,24.6v-3q-20.7-12.27-41.44-24.51a6.72,6.72,0,0,1-3.79-6.58c-.16-29.24-.48-58.49-.73-87.74,0-1.41.18-2.82.33-4.89,2.11,1.09,3.73,1.82,5.26,2.72q20.18,12,40.37,23.89V383.6l-39.74-22.46c-1.41-.8-2.75-1.75-4.67-3,1.37-1,2.27-1.79,3.3-2.37l41.11-23.11v-2.62l-39.88,23.58c-1.56.92-3.13,1.79-5.31,3.06a43,43,0,0,1-.56-4.87c.31-29.26.69-58.52,1-87.78,0-3,.6-5.12,3.5-6.82q20.68-12.06,41.29-24.24v-2.84q-21.25,11.94-42.51,23.92c-2.69,1.52-4.82,1.8-7.65.19-25.74-14.69-51.55-29.22-77.35-43.82-.94-.52-1.78-1.2-3.38-2.31,2-1.26,3.15-2.12,4.41-2.83,24.69-13.9,49.45-27.69,74.05-41.77,4.17-2.39,7.28-2.65,11.61-.14q20.34,11.76,40.82,23.26v-3L1990,157.32q-.45-47.85-.9-95.93c2.7.52,24.13,12.51,45.25,24.92V83.68q-20.25-11.46-40.49-22.93c-.94-.51-1.76-1.21-3.11-2.15a32.8,32.8,0,0,1,2.89-2.1Q2014,45,2034.31,33.63V30.44l-39.73,23.3c-1.42.84-2.86,1.66-4.79,2.77a24.63,24.63,0,0,1-.67-4q.36-35.16.75-70.31h-3.17c.22,24.56.44,49.36.66,74.87-28.52-16.91-56-33.2-83.7-49.61l-.24-25.26h-3.14c-.07,6.91-.16,13.81-.21,20.72,0,3.29-.86,5.39-3.87,7.15-25.27,14.78-50.44,29.72-75.65,44.61-1.1.64-2.28,1.15-3.82,1.93a14.6,14.6,0,0,1-.77-3.21c.24-23.74.53-47.47.75-71.2h-3.17c.23,24.6.46,49.44.69,75.05-28.66-17-56.06-33.23-83.93-49.75q-.12-12.63-.24-25.3h-3.14q-.12,10.58-.23,21.16c0,2.57-.48,4.49-3,6q-39.33,23-78.56,46.21a18,18,0,0,1-2.32.79c-.09-2.25-.24-3.86-.22-5.49q.39-34.32.76-68.64h-3.19c.22,24.63.45,49.28.67,74.46-2.48-1.3-4.1-2.06-5.62-3-24.56-14.54-49.06-29.15-73.68-43.56-3.26-1.93-4.54-4-4.57-7.84,0-6.7-.09-13.4-.13-20.1h-3.08c-.07,6.91-.17,13.82-.22,20.72,0,3.05-.68,5.1-3.56,6.76q-38.61,22.56-77,45.37c-.79.46-1.65.79-3.1,1.48-.15-1.92-.39-3.48-.37-5q.38-34.63.77-69.29h-3.18q.24,34.95.6,69.89c0,1.23-.17,2.48-.32,4.62-2.28-1.21-3.76-1.94-5.17-2.78q-37-21.95-74.09-43.84c-3-1.76-4.45-3.58-4.45-7.35,0-6.85-.09-13.69-.13-20.54h-3.1c-.07,6.85-.16,13.69-.22,20.54,0,3.06-.71,5.1-3.57,6.77-25,14.58-49.89,29.31-74.81,44l-.43.25-2.07,1.2c-.6.33-1.28.62-2.27,1.07a18.23,18.23,0,0,1-.57-3.51q.36-35.16.75-70.31h-3.73c.22,24.45.44,49.14.66,74.53-28.32-16.79-55.61-33-83.14-49.27q-.12-12.64-.24-25.26h-3.7q-.11,10.36-.21,20.72c0,3.29-.86,5.39-3.87,7.15-25.23,14.75-50.37,29.68-75.54,44.54-1,.55-2,1-3.46,1.7a11.61,11.61,0,0,1-.68-2.91c.24-23.74.53-47.47.75-71.2h-3.72c.22,24.5.45,49.22.68,74.72-28.45-16.88-55.68-33-83.37-49.42q-.12-12.63-.24-25.3h-3.69q-.12,10.58-.24,21.16a7.55,7.55,0,0,1-.9,3.92,6.21,6.21,0,0,1-.78,1c-.13.12-.31.23-.45.35a9.27,9.27,0,0,1-1.12.82Q991.49,32.15,952.85,55c-.53.27-1.14.58-1.8.89l-.89.27c-.09-2.15-.23-3.73-.21-5.31q.39-34.32.76-68.64H947c.22,24.27.44,48.57.66,73.37,0,.26,0,.51,0,.79-2.14-1.11-3.64-1.84-5-2.66-24.55-14.54-49-29.15-73.67-43.56-3.26-1.93-4.54-4-4.57-7.84,0-6.7-.09-13.4-.13-20.1h-3.63c-.07,6.91-.17,13.82-.23,20.72,0,3.05-.68,5.1-3.56,6.76q-38.61,22.56-77,45.37c-.67.39-1.47.73-2.57,1.23-.14-1.8-.36-3.3-.34-4.79q.38-34.63.77-69.29h-3.74q.24,34.95.6,69.89c0,1.17-.15,2.38-.3,4.34-2-1-3.34-1.73-4.63-2.5q-37-21.95-74.09-43.84c-3-1.76-4.45-3.58-4.45-7.35,0-6.85-.09-13.69-.13-20.54h-3.66C687.11-11,687-4.12,687,2.73c0,3.06-.71,5.1-3.57,6.77-25.74,15-51.38,30.2-77.06,45.31-.66.39-1.4.69-2.52,1.2-.08-.41-.15-.75-.23-1.11-.08-1.47-.15-2.58-.14-3.68q.39-34.51.75-69h-3.74c.22,24.5.44,49.1.67,74.46C572.74,39.83,545.55,23.72,518,7.36q-.12-12.57-.24-25.17H514c-.07,6.79-.15,13.59-.19,20.38-.05,3.55-1,5.7-4.16,7.58-25.12,14.66-50.12,29.51-75.17,44.3-1,.61-2.19,1.11-3.75,1.85-.12-.43-.24-.81-.36-1.19-.07-1.55-.14-2.67-.13-3.79.27-23,.56-46.09.75-69.13h-3.74c.22,24.58.45,49.23.67,74.64C399.4,39.89,372.05,23.66,344.6,7.39q-.12-12.61-.23-25.2h-3.7c-.07,6.92-.15,13.84-.2,20.77,0,3.11-.88,5.05-3.7,6.69q-38.11,22.28-76.11,44.8c-.93.56-2,1-3.38,1.68-.16-2-.38-3.49-.35-5q.38-34.45.74-68.93H254q.27,33.82.52,67.63c0,1.89-.08,3.79-.16,6.53l-.6-.31L220.46,36.39v.17Q198.1,23.3,175.67,10.13c-3.26-1.93-4.54-4-4.57-7.84,0-6.7-.08-13.4-.13-20.1H167.9c-.08,6.91-.17,13.82-.23,20.72,0,3.05-.68,5.1-3.56,6.76Q125.5,32.23,87.06,55c-.79.46-1.65.79-3.1,1.48-.15-1.92-.39-3.48-.37-5q.39-34.63.77-69.29H81.18q.24,34.95.6,69.89c0,1.23-.17,2.48-.32,4.62-2.28-1.21-3.76-1.94-5.17-2.78Q39.27,32,2.2,10.08c-3-1.76-4.45-3.58-4.45-7.35,0-6.85-.09-13.69-.13-20.54h-3.1C-5.55-11-5.64-4.12-5.7,2.73c0,3.06-.71,5.1-3.56,6.77C-35,24.52-60.65,39.7-86.33,54.81c-.8.47-1.66.79-3.23,1.53-.11-2.25-.24-3.69-.22-5.12q.39-34.51.75-69h-3.18C-92,6.8-91.76,31.5-91.54,57ZM-89.43,263c0-3.45,1.86-4.85,4.36-6.31Q-54.83,239-24.65,221.29c6-3.55,12.14-7,19-11,.14,2.16.33,3.61.32,5-.32,29.07-.71,58.15-1,87.23,0,3.28-.85,5.38-3.87,7.15Q-48,331.9-85.78,354.32c-1.09.66-2.28,1.16-3.81,1.94a13.93,13.93,0,0,1-.77-3.21C-90.06,323-89.65,293-89.43,263Zm338.71-6.1c2.6,1.55,4,3.16,4,6.47.14,29.43.47,58.87.72,88.29,0,1.2-.13,2.41-.28,4.35-1.78-.92-3-1.52-4.14-2.18l-29.1-17.24v.16q-22.61-13.4-45.27-26.7c-3.43-2-4.87-4.14-4.88-8.23-.07-28.52-.42-57-.66-85.54,0-1.79.12-3.59.21-6,1.84.85,3.16,1.35,4.35,2.06q22.86,13.51,45.69,27v.14Q234.58,248.26,249.28,256.94ZM1814.64,659.75c2.18,1.14,3.79,1.89,5.32,2.81,24.55,14.54,49,29.16,73.68,43.55,3.49,2,4.79,4.25,4.79,8.28.09,28.53.43,57.07.68,85.61,0,1.78-.13,3.56-.25,6-2.17-1.13-3.8-1.88-5.32-2.8-24.55-14.54-49-29.16-73.69-43.56-3.49-2-4.76-4.24-4.77-8.28-.08-28.54-.43-57.07-.68-85.6C1814.38,664,1814.53,662.22,1814.64,659.75Zm0-8.14q.46-44.13,1-88.26c0-2.6.53-4.48,3-5.94q39.29-23,78.48-46.22a22.48,22.48,0,0,1,2.32-.9c.11,2,.27,3.44.25,4.86-.32,29.06-.7,58.11-1,87.15,0,3-.56,5.11-3.47,6.82-25.74,15-51.38,30.21-77,45.35-.79.46-1.65.81-3,1.5A36,36,0,0,1,1814.63,651.61Zm81.94,52.28c-25.72-14.72-51.56-29.23-77.34-43.83-1-.53-1.81-1.22-3.22-2.16a35.54,35.54,0,0,1,3.62-2.72c25.33-14.27,50.72-28.46,76-42.81,3-1.72,5.42-2.07,8.65-.22,25.4,14.52,50.92,28.85,76.38,43.27,1.1.61,2.11,1.39,4.16,2.76-2.42,1.39-4,2.31-5.54,3.18q-37.3,21-74.6,42C1902,704.88,1899.72,705.69,1896.57,703.89Zm-.27-300.15c-24.9-14.28-49.94-28.31-74.93-42.44-1.41-.81-2.74-1.75-4.63-3,1.53-1.1,2.58-2,3.78-2.72,25.35-14.28,50.73-28.48,76-42.84,3.09-1.75,5.44-1.95,8.64-.11,25.23,14.45,50.59,28.68,75.9,43,1.25.7,2.41,1.57,4.59,3l-5.64,3.25c-24.72,13.86-49.48,27.66-74.12,41.66C1902.49,405.54,1899.87,405.79,1896.3,403.74Zm3-101.21c0,3-.5,5.12-3.44,6.82-25.76,15-51.42,30.24-77.12,45.38-.77.46-1.63.78-3,1.42a34.06,34.06,0,0,1-.54-4.45c.31-29.25.74-58.52.91-87.78,0-3.69,1.37-5.63,4.44-7.42,25.28-14.76,50.46-29.69,75.67-44.54.94-.55,2-.93,3.76-1.76.12,2.23.27,3.67.26,5.1C1899.91,244.38,1899.54,273.46,1899.27,302.53Zm-.41,107.27c.28,31.72.57,63.65.87,96.82L1816,457q-.43-48-.88-96C1819.42,361.92,1889.82,403,1898.86,409.8Zm-81.79,52q39.32,22.38,78.72,44.61a29.72,29.72,0,0,1,2.49,1.92c-2.26,1.32-3.83,2.24-5.44,3.14-24.68,13.88-49.41,27.68-74,41.73-3.68,2.11-6.39,2.13-10.1,0C1784,538.93,1759.16,525,1734.36,511c-1.41-.79-2.76-1.73-4.68-3a38.69,38.69,0,0,1,3.28-2.38q38.71-21.75,77.45-43.53C1812.68,460.82,1814.59,460.34,1817.07,461.76ZM1641.42,659.61c28.39,16.61,55.77,33,83.5,49.4.29,32.09.58,64.06.87,97.14-2.81-1.58-4.44-2.44-6-3.38-24.23-14.36-48.41-28.8-72.72-43-3.59-2.09-5.15-4.25-5.16-8.62,0-28.16-.39-56.32-.63-84.48C1641.25,664.69,1641.35,662.72,1641.42,659.61Zm-.15-9.26q.48-43.32,1-86.6c0-3,.47-5.11,3.42-6.84,25.89-15.1,51.68-30.41,77.52-45.64.63-.37,1.32-.63,2.45-1.15a19.23,19.23,0,0,1,.69,3.64c-.3,29.78-.69,59.57-1,89.35a6,6,0,0,1-3.43,5.75q-38.57,22.59-77,45.33c-.91.53-1.9.86-3.35,1.5C1641.42,653.56,1641.25,652,1641.27,650.35Zm81.08,53.07c-24.89-14.27-49.91-28.3-74.87-42.42-1.41-.8-2.74-1.73-4.67-3,1.71-1.17,3-2.15,4.29-2.92q38-21.36,76-42.72c2.63-1.47,4.73-2,7.64-.33,25.71,14.7,51.51,29.21,77.28,43.79.94.52,1.78,1.19,3.55,2.43-2.25,1.28-3.67,2.12-5.11,2.92-25,14-50.07,28-75,42.22C1728.16,705.3,1725.7,705.34,1722.35,703.42Zm6.11,10.08c0-3.68,1.36-5.63,4.44-7.43,25.27-14.76,50.45-29.68,75.67-44.53.92-.56,2-.94,3.76-1.77.11,2.23.27,3.67.26,5.1-.33,29.07-.71,58.15-.93,87.22,0,3.32-1,5.37-4,7.09q-37.9,22.17-75.67,44.56c-1.09.64-2.26,1.16-4.07,2.08-.17-2-.42-3.55-.41-5.09C1727.88,771.65,1728.29,742.57,1728.46,713.5Zm84-57.28c-2.45-1.35-4.08-2.22-5.66-3.16-24.37-14.42-48.7-28.95-73.15-43.24-3.45-2-4.85-4.17-4.86-8.24-.07-28.53-.42-57-.66-85.55,0-1.77.13-3.55.23-6,1.84.86,3.15,1.37,4.35,2.09q37.75,22.35,75.51,44.7c2.38,1.4,3.88,2.77,3.89,5.95.15,29.82.48,59.62.74,89.42C1812.84,653.25,1812.63,654.3,1812.44,656.22Zm-84.11-155.55c.33-28.7.72-57.4.93-86.11,0-3.68.94-6,4.38-8,25.15-14.62,50.16-29.46,75.21-44.23,1.09-.64,2.28-1.15,3.88-2a23.36,23.36,0,0,1,.66,3.85c-.31,29.62-.69,59.26-1,88.9,0,2.87-.81,4.74-3.44,6.27q-38.61,22.63-77.09,45.45c-.77.46-1.63.77-3.33,1.55C1728.47,503.91,1728.33,502.29,1728.33,500.67Zm84.79-144.45c-14.48-7.8-28-16.35-41.75-24.41s-27.71-16.41-41.65-24.7c-.3-32.08-.58-63.93-.88-96.54a39.94,39.94,0,0,1,4.34,1.85q38,22.49,76,45c2.35,1.38,3.41,2.84,3.43,5.65.17,30,.49,60,.76,90C1813.41,353.83,1813.28,354.56,1813.12,356.22Zm-81.31-43.76c25.24,14.45,50.59,28.69,75.9,43,1.25.7,2.4,1.58,4.48,3-4.68,2.7-8.49,4.93-12.34,7.09-22.28,12.54-44.63,25-66.84,37.62-3.78,2.16-6.62,2.46-10.6.17-24.54-14.15-49.26-28-73.92-42-1.57-.88-3.08-1.86-5.11-3.1a29.51,29.51,0,0,1,3.28-2.57c25.5-14.37,51-28.65,76.5-43.1C1726.26,310.81,1728.61,310.63,1731.81,312.46Zm-5.69-9.28c0,2.61-.59,4.47-3,5.92q-39.3,23-78.49,46.19a16,16,0,0,1-2.28.86c-.11-2-.27-3.48-.25-4.9.32-29.05.7-58.09,1-87.15,0-3,.68-5.09,3.55-6.77q38.6-22.56,77-45.37c.79-.46,1.65-.8,2.89-1.4a22,22,0,0,1,.62,3.8Q1726.63,258.77,1726.12,303.18Zm-83.92,56.57c28.16,16.67,55.66,33,83.49,49.47.29,32,.59,64.06.9,96.7a25.07,25.07,0,0,1-3.78-1.36q-38.5-22.79-77-45.61c-2.07-1.22-3.23-2.53-3.25-5.18-.17-30.39-.48-60.78-.73-91.16C1641.82,362.07,1642,361.53,1642.2,359.75ZM1645,462.49c25.24,14.45,50.59,28.69,75.89,43,1.25.7,2.41,1.56,4.6,3-2.49,1.43-4,2.35-5.63,3.24-24.72,13.87-49.47,27.67-74.12,41.67-3.42,2-6,2.2-9.6.15-24.9-14.28-49.95-28.33-74.93-42.45-1.42-.81-2.76-1.73-4.65-2.94a44.4,44.4,0,0,1,3.78-2.74c25.35-14.27,50.72-28.47,76-42.84C1639.39,460.85,1641.74,460.66,1645,462.49ZM1471.21,661.21q38.73,22.9,77.42,45.84c2.11,1.24,3.21,2.61,3.21,5.22q.29,45.54.73,91.08a21.44,21.44,0,0,1-.4,2.49c-2-1-3.45-1.67-4.84-2.49-24.85-14.71-49.67-29.49-74.58-44.14-2.84-1.66-4.15-3.43-4.15-6.91-.13-29.26-.46-58.5-.72-87.75,0-1.29.1-2.57.18-4.31A14.53,14.53,0,0,1,1471.21,661.21Zm-3.1-11c.32-28.52.71-57,.9-85.55,0-3.94,1.11-6.35,4.67-8.43,24.83-14.42,49.52-29.07,74.26-43.64,1.38-.81,2.86-1.45,4.93-2.51.12,2.41.29,4.18.27,5.94-.32,28.52-.72,57-.9,85.56,0,4-1.16,6.33-4.7,8.38-24.64,14.36-49.17,28.94-73.73,43.47-1.53.89-3.07,1.75-5.41,3.1C1468.27,653.74,1468.11,652,1468.11,650.19Zm80.62,52.9c-24.89-14.26-49.91-28.31-74.86-42.44-1.39-.79-2.68-1.77-4.7-3.14,2.19-1.26,3.72-2.15,5.27-3,25-14,50.07-28,75-42.2,3.14-1.78,5.46-1.81,8.62,0,25.06,14.35,50.22,28.47,75.36,42.68,1.38.8,2.65,1.77,4.44,3-1.86,1.19-3.17,2.13-4.56,2.92-25,14.07-50,28.07-75,42.27C1554.85,705.11,1552.22,705.08,1548.73,703.09Zm6.61,10.12c0-2.93.91-4.73,3.49-6.25q38.6-22.58,77-45.37c.79-.46,1.64-.83,3-1.53a33.93,33.93,0,0,1,.52,4.35c-.3,29.42-.68,58.83-1,88.26,0,2.58-.48,4.5-3,6q-39.52,23.16-79,46.45a11.61,11.61,0,0,1-1.87.57c-.11-1.69-.26-2.94-.25-4.17C1554.73,772.06,1555.1,742.64,1555.34,713.21Zm.45-106.36q-.45-47.93-.89-96c4.21.81,73.91,41.47,83.74,48.74.28,31.7.57,63.65.86,96.87ZM1555,502.1c.31-29.63.71-59.25.93-88.88,0-3.56,1.65-5.24,4.43-6.86q33.84-19.74,67.6-39.64c3.64-2.14,7.32-4.22,11.93-6.88.07,2.77.17,4.58.15,6.38-.32,28.7-.71,57.4-.91,86.11,0,3.32-1,5.37-3.94,7.12-25.28,14.75-50.46,29.68-75.67,44.54-1.09.65-2.26,1.16-3.86,2A23.55,23.55,0,0,1,1555,502.1Zm84.92-145.6c-2.44-1.37-4.07-2.23-5.64-3.17-24.38-14.43-48.7-28.94-73.16-43.24-3.43-2-4.87-4.14-4.89-8.23-.06-28.52-.41-57-.65-85.54,0-1.79.12-3.59.21-6,1.83.85,3.16,1.35,4.35,2.06q37.77,22.35,75.51,44.71c2.36,1.4,3.9,2.75,3.92,5.94.13,29.81.47,59.61.72,89.43C1640.26,353.5,1640.06,354.56,1639.87,356.5ZM1558,312.27q38.84,22.11,77.77,44c.78.44,1.48,1,2.94,2.06-1.81,1.18-3,2-4.25,2.74q-38,21.36-76,42.75c-2.86,1.62-5.1,1.88-8.13.15-25.54-14.58-51.2-29-76.81-43.49-.93-.52-1.8-1.19-3.23-2.13a35.64,35.64,0,0,1,3.57-2.65q38.47-21.64,76.95-43.28C1553.38,311,1555.39,310.77,1558,312.27Zm-5.24-9.86c0,3.38-1.09,5.36-4,7.07-25.42,14.85-50.74,29.84-76.11,44.76-1,.56-2,1-3.37,1.69a22.91,22.91,0,0,1-.63-3.8q.48-44.42,1-88.81c0-2.62.62-4.47,3.07-5.92q39.3-23,78.49-46.19a19.63,19.63,0,0,1,2.26-.87c.12,2.06.28,3.49.26,4.92C1553.39,244.31,1553,273.37,1552.78,302.41Zm-78.88,60.38c24.86,14.71,49.7,29.5,74.6,44.16,2.64,1.55,3.94,3.2,3.94,6.47.14,29.47.47,58.93.73,88.38,0,1.1-.08,2.21-.12,3.17a5.41,5.41,0,0,1-.64.42c-.15.06-.37.17-.49.11a33,33,0,0,1-3-1.45L1469.49,457c-.29-32.09-.59-63.91-.88-96.88C1471,361.32,1472.52,362,1473.9,362.79Zm-1.9,99.75q37.61,21.48,75.41,42.7c1.26.72,2.44,1.59,4.64,3-2.46,1.41-4,2.34-5.58,3.22q-37.34,21-74.6,41.95c-2.76,1.55-5,2.32-8.15.53-25.72-14.71-51.54-29.24-77.32-43.83-1-.52-1.81-1.21-3.19-2.15a37.39,37.39,0,0,1,3.64-2.73c25.33-14.26,50.73-28.44,76-42.83C1466.22,460.51,1468.72,460.67,1472,462.54Zm-173.06,296c-1.21-.79-2.22-1.47-3-2-.28-31.79-.57-63.58-.88-96.75l46,27.3v-.19L1378.39,709q.45,47.91.89,95.93c-2-.35-19.21-9.94-37.63-20.63v-.44Zm2.14-105.81c-.84.49-1.7,1-2.66,1.53s-1.72.87-3,1.5c-.14-2.3-.28-3.82-.26-5.31.31-28.69.72-57.38.89-86.09,0-4,1.33-6.32,4.81-8.34q20.45-11.92,40.82-24v-.3l33.78-19.92c1.06-.64,2.27-1.07,4-1.85.17,1.84.42,3.22.41,4.59-.33,29.26-.7,58.52-1,87.78,0,3.06-.76,5.07-3.6,6.74q-17.1,10-34.14,20v0Zm74.78,50.69q-17.05-9.79-34.21-19.46v-.1q-20.67-11.7-41.35-23.39c-1-.6-2-1.37-3.82-2.6.46-.34.86-.64,1.25-1,1.5-.87,2.6-1.51,3.7-2.12l40.22-22.62v-.3q17.24-9.69,34.43-19.43c3.08-1.75,5.43-2,8.64-.13,25.23,14.44,50.58,28.69,75.89,43,1.26.7,2.42,1.57,4.62,3-2.51,1.44-4.06,2.35-5.64,3.25-24.71,13.86-49.47,27.66-74.12,41.66C1382.05,705.19,1379.44,705.47,1375.86,703.42Zm6.13,10c0-3,.68-5.09,3.56-6.76,25.57-14.95,51-30.06,76.55-45.09,1-.57,2-1,3.58-1.8.15,1.94.4,3.49.39,5.06-.32,29-.7,58.1-1,87.15,0,3-.63,5.11-3.51,6.79-25.74,15-51.4,30.2-77.07,45.32-.79.46-1.65.79-3.27,1.57-.1-2.22-.24-3.66-.22-5.09C1381.36,771.54,1381.74,742.49,1382,713.44ZM1466,656c-1.75-.85-3.07-1.38-4.28-2.08q-37.79-22.38-75.59-44.74c-2.69-1.58-3.81-3.33-3.83-6.54-.15-29.45-.48-58.91-.73-88.37,0-1.24.16-2.48.29-4.27,1.58.74,2.74,1.19,3.79,1.79q38,22.53,76,45c2.7,1.59,3.85,3.33,3.85,6.53.16,29.46.48,58.91.75,88.37C1466.32,652.93,1466.15,654.16,1466,656Zm-84.18-155.15c.31-28.87.7-57.73.92-86.6,0-3.26.75-5.41,3.8-7.2,25.25-14.73,50.39-29.66,75.59-44.52,1.22-.72,2.55-1.28,4.45-2.23.1,2.31.26,4.08.24,5.86-.31,28.49-.73,57-.89,85.49,0,4-1.28,6.29-4.77,8.31-24.63,14.36-49.14,28.92-73.69,43.39-1.54.92-3.1,1.8-5.31,3.08C1382,504,1381.82,502.41,1381.84,500.82Zm1.36-193.72c-.3-32.26-.59-64.08-.88-95.69a6,6,0,0,1,.83-.46.74.74,0,0,1,.51-.08c1,.48,2,.92,3,1.47L1466,259.42c.29,32.14.58,64.07.88,97.29Zm1.49,5c25.86,14.79,51.84,29.39,77.76,44.06.78.44,1.47,1,2.7,1.9a43.21,43.21,0,0,1-3.61,2.63q-38.24,21.53-76.45,43.05c-2.6,1.46-4.73,2-7.66.37q-17.87-10.21-35.78-20.32v-.15l-39.74-22.46c-1.41-.8-2.75-1.75-4.67-3,1.37-1,2.27-1.79,3.3-2.37l41.11-23.11v-.3q17.7-9.93,35.4-19.88C1379.63,311,1381.75,310.4,1384.69,312.06Zm-5.07-9.48c0,3.28-.86,5.38-3.87,7.15q-17.36,10.14-34.65,20.38v-.05q-20,11.79-39.89,23.58l-1.79,1c-.89.48-1.84.93-3,1.52a34.34,34.34,0,0,1-.49-4.37c.31-29.26.69-58.52,1-87.78,0-3,.6-5.12,3.5-6.82Q1321,245.17,1341.65,233v-.22l19.57-11.48c6-3.55,12.15-7,19-11,.14,2.16.33,3.61.31,5C1380.24,244.42,1379.85,273.5,1379.62,302.58Zm-83.64,58,1,.31c1.37.68,2.61,1.29,3.72,1.95q20.17,12,40.38,23.89v-.14Q1358.55,397,1376,407.28c2.08,1.24,3.24,2.57,3.26,5.19.18,30.38.48,60.73.72,91.1a21.27,21.27,0,0,1-.37,2.52c-2-1-3.45-1.64-4.81-2.45L1341.65,484v-.11q-20.7-12.27-41.44-24.51a6.72,6.72,0,0,1-3.79-6.58c-.16-29.24-.48-58.49-.73-87.74C1295.68,363.74,1295.84,362.42,1296,360.61Zm0,100.89a7.49,7.49,0,0,1,1.81.75q21.63,12.36,43.34,24.6v-.15l33.25,18.79c1.25.69,2.4,1.53,4.09,2.64-1.64,1.11-2.73,2-4,2.68L1341.1,529.6h0q-21.58,12.12-43.15,24.26a14.52,14.52,0,0,1-1.56.74,7.54,7.54,0,0,1-1,.3l-.18,0a5.93,5.93,0,0,1-2.55,0,8.73,8.73,0,0,1-1.83-.78c-25.72-14.67-51.53-29.18-77.3-43.77-.92-.52-1.76-1.21-3.16-2.17,1.68-1.14,2.91-2.12,4.27-2.9q38-21.36,76-42.71a9.43,9.43,0,0,1,3.57-1.3h.06A6.73,6.73,0,0,1,1296,461.5Zm-158,207.69c20.48,12.14,40.95,24.31,61.51,36.33l1.62,1c3,1.92,4.17,4.09,4.17,7.84.09,28.53.44,57.07.68,85.61,0,1.71-.12,3.43-.23,5.74-1.88-1-3.4-1.7-4.78-2.53-24.55-14.54-49.05-29.16-73.69-43.56-3.48-2-4.76-4.24-4.77-8.28-.08-28.54-.43-57.07-.68-85.6,0-1.56.1-3.15.2-5.17C1124.06,661.5,1130.05,664.75,1137.91,669.19ZM1122,651.61q.46-44.13,1-88.26c0-2.6.53-4.48,3-5.94q39.27-23,78.47-46.22a12.79,12.79,0,0,1,1.77-.7c.12,1.89.27,3.29.24,4.66-.32,29.06-.69,58.11-1,87.15,0,2.54-.42,4.43-2.29,6-.21.15-.4.32-.64.47s-.34.24-.54.36c-25.74,15-51.37,30.21-77,45.35-.49.28-1,.55-1.69.86l-.83.36A30.22,30.22,0,0,1,1122,651.61Zm83.19,52.87-.24-.1a7.75,7.75,0,0,1-1-.49c-25.72-14.72-51.56-29.23-77.34-43.83-1-.53-1.81-1.22-3.22-2.16a35.54,35.54,0,0,1,3.62-2.72c25.33-14.27,50.72-28.46,76-42.81a9.59,9.59,0,0,1,4.19-1.39,8,8,0,0,1,3.91,1.17c25.4,14.52,50.91,28.85,76.37,43.27,1,.59,2,1.34,3.93,2.61-1.71,1.1-3,2-4.22,2.72l-1.09.61q-37.3,21-74.6,42a17.91,17.91,0,0,1-1.8.91,6.21,6.21,0,0,1-3.74.49A6.86,6.86,0,0,1,1205.16,704.48Zm6.93-192.59q38.29,22.64,76.51,45.32c2.05,1.2,3.41,2.37,3.42,5.08.16,30.57.45,61.13.69,91.7a7.2,7.2,0,0,1-.41,1.58c-14-7.63-27.43-16-41-24-13.88-8.14-27.7-16.43-41.62-24.68-.29-32.06-.58-63.82-.87-96.23A18.93,18.93,0,0,1,1212.09,511.89Zm-3.26-11c.32-29.05.7-58.1,1-87.16,0-3,.73-5,3.6-6.73,25.56-14.93,51-30,76.54-45.09.82-.48,1.75-.89,2.93-1.46a31.84,31.84,0,0,1,.45,4.23c-.31,29.24-.7,58.48-1,87.7,0,3.06-.7,5.09-3.57,6.77q-38.52,22.51-77,45.26c-.74.4-1.58.75-2.81,1.31C1208.93,503.64,1208.81,502.25,1208.83,500.88Zm.33,213.52c0-4,1.32-6.32,4.79-8.33,24.46-14.24,48.81-28.67,73.19-43,1.6-.91,3.24-1.86,4.92-2.83a17.29,17.29,0,0,1,.69,3.64q-.45,44.71-1,89.43a9.6,9.6,0,0,1-.09,1.1,8,8,0,0,1-3.83,5q-38.77,22.77-77.46,45.66a10.23,10.23,0,0,1-1.81.68l-.15-.63c-.08-2-.18-3.57-.16-5.12C1208.58,771.45,1209,742.94,1209.16,714.4ZM1277.27,347q-31.76-18.78-63.49-37.57l-.93-.61a5.31,5.31,0,0,1-2.73-4.88c-.18-30.38-.48-60.76-.72-91.15a10.82,10.82,0,0,1,.19-1.61c2,.81,7.61,3.78,14.94,7.87l66.24,39.26c.73.49,1.38.93,1.92,1.31.3,31.84.59,63.62.89,95.92C1292.06,355.05,1285.8,351.73,1277.27,347Zm-67.34-35.18a10.64,10.64,0,0,1,2,.9c25.23,14.45,50.59,28.68,75.9,43,1.19.66,2.32,1.49,4.28,2.8-1.59,1.08-2.74,1.94-3.91,2.64l-1.42.82c-24.33,13.64-48.69,27.23-73,41l-1.19.67a13.86,13.86,0,0,1-2.38,1.1l-.12,0a7.65,7.65,0,0,1-1.73.33,8.79,8.79,0,0,1-4.8-1.33c-24.9-14.28-49.94-28.31-74.92-42.44-1.41-.81-2.75-1.75-4.64-3,1.53-1.1,2.58-2,3.78-2.72,25.35-14.28,50.73-28.48,76-42.84a9.48,9.48,0,0,1,3.8-1.31A7.62,7.62,0,0,1,1209.93,311.77Zm-3.87-9.24a9,9,0,0,1-.87,4.32,7.71,7.71,0,0,1-2.77,2.61c-25.53,14.9-51,30-76.42,45-.71.37-1.5.77-2.42,1.22l-.55.26a29.75,29.75,0,0,1-.5-4.22c.31-29.25.74-58.52.91-87.78,0-3.69,1.37-5.63,4.44-7.42,25.28-14.76,50.46-29.69,75.67-44.54.83-.49,1.77-.86,3.22-1.52.12,2.08.26,3.48.24,4.86C1206.7,244.38,1206.33,273.46,1206.06,302.53Zm-49.25,77.66L1191,400.43c7.15,4.35,12.59,7.8,14.7,9.37.27,31.24.56,62.69.85,95.31-1.52-.42-7.94-3.82-16.67-8.71l-63.35-37.52c-1.27-.83-2.32-1.54-3.13-2.11q-.43-47.76-.88-95.58C1125.91,362.56,1140.62,370.81,1156.81,380.19Zm-34.31,81a6.57,6.57,0,0,1,1.35.56q39.33,22.38,78.72,44.61a21.1,21.1,0,0,1,2.13,1.63,26.82,26.82,0,0,1-2.85,2.16l-.38.22-9,5.07q-25.5,14.31-51,28.72c-5.42,3.06-10.86,6.1-16.27,9.16a10.13,10.13,0,0,1-4.16,1.34,9.81,9.81,0,0,1-5-1.53C1091.36,538.93,1066.5,525,1041.7,511c-1.41-.79-2.76-1.73-4.68-3a38.69,38.69,0,0,1,3.28-2.38q38.71-21.75,77.45-43.53a9.38,9.38,0,0,1,2.51-1A6.53,6.53,0,0,1,1122.5,461.2ZM948.75,660.08l1.49.73c27,15.83,53.18,31.48,79.61,47.1a5.85,5.85,0,0,1,1.87,2.89c.28,30.72.56,61.38.84,93-.06.56-.12,1.17-.19,1.91-2.32-1.29-3.83-2.1-5.25-3-24.23-14.36-48.41-28.8-72.72-43-3.59-2.09-5.15-4.25-5.16-8.62,0-28.16-.39-56.32-.63-84.48C948.59,664.8,948.68,662.9,948.75,660.08Zm-.14-9.73q.48-43.32,1-86.6c0-3,.47-5.11,3.42-6.84,25.89-15.1,51.68-30.41,77.52-45.64.52-.3,1.13-.56,1.94-.93a16,16,0,0,1,.64,3.42c-.3,29.78-.69,59.57-.95,89.35a6.4,6.4,0,0,1-.81,3.3,4.71,4.71,0,0,1-.33.45,7.45,7.45,0,0,1-2.29,2q-38.55,22.59-77.05,45.33a23.49,23.49,0,0,1-2.81,1.27C948.74,653.46,948.59,651.9,948.61,650.35Zm81.08,53.07c-24.89-14.27-49.91-28.3-74.87-42.42-1.41-.8-2.74-1.73-4.67-3,1.71-1.17,3-2.15,4.29-2.92q38-21.36,76-42.72a9.59,9.59,0,0,1,3.56-1.29,6.76,6.76,0,0,1,1.7.21,8.67,8.67,0,0,1,1.82.75c25.71,14.7,51.52,29.21,77.29,43.79.87.49,1.69,1.12,3.23,2.2-1.49,1-2.56,1.89-3.71,2.54l-1.09.61c-22.7,12.76-45.43,25.47-68.08,38.31l-7,4a13.1,13.1,0,0,1-2.1.95l-.28.08a7.61,7.61,0,0,1-1.39.23A8.7,8.7,0,0,1,1029.69,703.42Zm6.11,10.08c0-3.68,1.36-5.63,4.44-7.43,25.27-14.76,50.45-29.68,75.67-44.53a31.3,31.3,0,0,1,3.09-1.47c.06.34.12.62.18.93.1,1.55.2,2.72.19,3.87-.33,29.07-.71,58.15-.93,87.22,0,3.32-1,5.37-4,7.09q-37.9,22.17-75.66,44.56c-.94.55-1.95,1-3.33,1.71l-.21.09c-.17-1.86-.4-3.35-.39-4.81C1035.22,771.65,1035.63,742.57,1035.8,713.5Zm83.45-57.57c-2.14-1.18-3.67-2-5.13-2.87-24.37-14.42-48.7-28.95-73.15-43.24-3.45-2-4.85-4.17-4.86-8.24-.07-28.53-.42-57-.66-85.55,0-1.71.12-3.44.22-5.74a40.65,40.65,0,0,1,3.81,1.84q37.74,22.35,75.5,44.7c2.38,1.4,3.89,2.77,3.9,5.95.14,29.82.47,59.62.73,89.42A35.52,35.52,0,0,1,1119.25,655.93Zm-83.58-155.26c.33-28.7.72-57.4.93-86.11,0-3.68.94-6,4.38-8,25.15-14.62,50.16-29.46,75.21-44.23,1-.56,2-1.06,3.38-1.73a19.38,19.38,0,0,1,.6,3.6c-.31,29.62-.69,59.26-1,88.9a8,8,0,0,1-.67,3.43,6.16,6.16,0,0,1-.33.55,5.5,5.5,0,0,1-.52.7c-.15.17-.3.35-.47.51a8.16,8.16,0,0,1-1.45,1.08q-16,9.39-32,18.84-9.09,5.35-18.16,10.71l-26,15.31c-.94.53-2,1-3.28,1.67l-.5.22C1035.8,503.81,1035.67,502.23,1035.67,500.67Zm84.27-144.75c-14.28-7.72-27.63-16.15-41.23-24.11-13.89-8.14-27.71-16.41-41.65-24.7-.29-32-.58-63.79-.88-96.32a29.12,29.12,0,0,1,3.78,1.63q38,22.49,76,45c2.34,1.38,3.4,2.84,3.42,5.65.18,30,.5,60,.76,90C1120.2,353.78,1120.08,354.49,1119.94,355.92Zm-83.42-44.38a11.16,11.16,0,0,1,2.08.92c25.23,14.45,50.58,28.69,75.89,43,1.15.65,2.24,1.45,4,2.63a29,29,0,0,1-2.44,2l-5.29,3-16.35,9.2q-19.76,11.08-39.48,22.22l-15.9,8.95a10.94,10.94,0,0,1-4.08,1.31,9.91,9.91,0,0,1-5.21-1.54c-24.54-14.15-49.26-28-73.92-42-1.49-.84-3-1.78-4.84-2.94l-.23-.19a28.19,28.19,0,0,1,3.24-2.54c25.5-14.37,51-28.65,76.5-43.1a10.54,10.54,0,0,1,3.08-1.17A8.12,8.12,0,0,1,1036.52,311.54Zm-3.62-8.36c0,2.61-.59,4.47-3.05,5.92q-39.3,23-78.49,46.19l-.14.07c-.37.17-.82.31-1.6.58-.11-1.92-.25-3.32-.23-4.69.32-29.05.7-58.09,1-87.15,0-3,.68-5.09,3.55-6.77q38.6-22.56,77-45.37c.66-.39,1.43-.72,2.38-1.16a18.68,18.68,0,0,1,.57,3.56C1033.57,244,1033.19,273.58,1032.9,303.18Zm-83.4,56.87c28,16.57,55.31,32.77,83,49.17.3,32,.59,63.94.9,96.52a17.23,17.23,0,0,1-3.22-1.18q-38.51-22.79-77-45.61c-2.07-1.22-3.23-2.53-3.25-5.18-.17-30.39-.48-60.78-.73-91.16A23.8,23.8,0,0,1,949.5,360.05Zm.11,101.51a11,11,0,0,1,2.13.93c25.23,14.45,50.58,28.69,75.89,43,1.16.66,2.28,1.46,4.2,2.74-1.4,1-2.4,1.87-3.48,2.51l-1.75,1q-31.69,17.78-63.36,35.6l-11,6.18a10.34,10.34,0,0,1-4.1,1.39,8.86,8.86,0,0,1-4.7-1.35c-24.9-14.28-49.95-28.33-74.93-42.45-1.42-.81-2.76-1.73-4.65-2.94a44.4,44.4,0,0,1,3.78-2.74c25.35-14.27,50.73-28.47,76-42.84a9.43,9.43,0,0,1,4-1.35A7.06,7.06,0,0,1,949.61,461.56ZM778,661.21q38.73,22.9,77.43,45.84c2.1,1.24,3.2,2.61,3.21,5.22q.29,45.54.72,91.08a17.78,17.78,0,0,1-.35,2.24c-1.71-.86-3.08-1.5-4.33-2.24-24.85-14.71-49.67-29.49-74.57-44.14-2.85-1.66-4.16-3.43-4.16-6.91-.12-29.26-.46-58.5-.71-87.75,0-1.25.09-2.51.16-4.17A10.06,10.06,0,0,1,778,661.21Zm-2.54-11c.32-28.52.71-57,.91-85.55,0-3.94,1.1-6.35,4.66-8.43,24.83-14.42,49.52-29.07,74.26-43.64,1.25-.73,2.6-1.35,4.39-2.24.11,2.26.27,4,.25,5.67-.32,28.52-.72,57-.9,85.56,0,4-1.16,6.33-4.69,8.38-24.65,14.36-49.18,28.94-73.74,43.47-1.4.82-2.84,1.63-4.86,2.79C775.6,653.62,775.45,651.89,775.45,650.19Zm80.62,52.9c-24.89-14.26-49.91-28.31-74.86-42.44-1.39-.79-2.68-1.77-4.7-3.14,2.19-1.26,3.72-2.15,5.27-3,25-14,50.07-28,75-42.2a8.94,8.94,0,0,1,4-1.3,8.74,8.74,0,0,1,4,1.3c25.06,14.35,50.22,28.47,75.36,42.68,1.38.8,2.66,1.77,4.44,3-1.86,1.19-3.16,2.13-4.56,2.92-25,14.07-50,28.07-75,42.27a9.72,9.72,0,0,1-4.52,1.43A9.94,9.94,0,0,1,856.07,703.09Zm6.62,10.12c0-2.93.9-4.73,3.49-6.25q38.58-22.58,77-45.37c.67-.39,1.46-.76,2.52-1.27a30.49,30.49,0,0,1,.49,4.09c-.31,29.42-.69,58.83-1,88.26a10.42,10.42,0,0,1-.33,2.54,6.78,6.78,0,0,1-3,3.59q-39.37,23.07-78.67,46.27a5.42,5.42,0,0,1-1.32.42c-.11-1.61-.25-2.83-.24-4C862.06,772.06,862.43,742.64,862.69,713.21Zm66.11-67.42c-22.19-13.17-43.83-26-65.67-38.94q-.45-47.82-.88-95.8c4.59,1.8,29.35,15.9,50.87,28.62v.15l19,11.27c6.35,3.88,11.19,7,13.29,8.52.27,31.2.56,62.65.85,95.3C944.7,654.49,937.94,650.9,928.8,645.79ZM862.29,502.1c.31-29.63.71-59.25.93-88.88,0-3.56,1.66-5.24,4.43-6.86q33.84-19.74,67.6-39.64c3.47-2,7-4.05,11.32-6.54,0,.31.06.55.09.84.06,2.11.13,3.68.11,5.2-.32,28.7-.7,57.4-.9,86.11,0,3.32-1,5.37-4,7.12-25.27,14.75-50.45,29.68-75.67,44.54-1,.58-2,1.07-3.35,1.71A20.68,20.68,0,0,1,862.29,502.1Zm84.4-145.89c-2.14-1.19-3.67-2-5.12-2.88-24.38-14.43-48.7-28.94-73.16-43.24-3.43-2-4.87-4.14-4.88-8.23-.07-28.52-.42-57-.66-85.54,0-1.73.11-3.47.2-5.77a39.51,39.51,0,0,1,3.8,1.82q37.77,22.35,75.52,44.71c2.35,1.4,3.89,2.75,3.91,5.94.14,29.81.47,59.61.73,89.43C947,353.44,946.87,354.47,946.69,356.21ZM864.8,312.27q38.84,22.11,77.78,44c.78.44,1.47,1,2.93,2.06-1.81,1.18-3,2-4.24,2.74q-38,21.36-76,42.75a9.06,9.06,0,0,1-3.78,1.29,7.76,7.76,0,0,1-3.79-1.14c-25.54-14.58-51.2-29-76.81-43.49-.93-.52-1.8-1.19-3.23-2.13a35.64,35.64,0,0,1,3.57-2.65q38.47-21.64,77-43.28a8.18,8.18,0,0,1,3.34-1.15A6.7,6.7,0,0,1,864.8,312.27Zm-5.23-9.86c0,3.38-1.1,5.36-4,7.07-25.41,14.85-50.74,29.84-76.1,44.76-.82.48-1.74.9-2.87,1.44a19.22,19.22,0,0,1-.58-3.55q.48-44.42,1-88.81c0-2.62.62-4.47,3.07-5.92q39.3-23,78.49-46.19a11.42,11.42,0,0,1,1.72-.67c.11,1.94.26,3.34.25,4.72C860.17,244.31,859.78,273.37,859.57,302.41Zm-78.89,60.38c24.86,14.71,49.7,29.5,74.6,44.16,2.65,1.55,3.94,3.2,3.94,6.47.15,29.47.47,58.93.74,88.38,0,1.1-.09,2.21-.12,3.17-.33.23-.48.33-.64.42l-.1,0a29.5,29.5,0,0,1-2.83-1.37L776.83,457c-.28-32-.58-63.73-.87-96.6C778,361.41,779.42,362,780.68,362.79Zm-1.9,99.75q37.61,21.48,75.41,42.7c1.27.72,2.44,1.59,4.65,3-2.46,1.41-4,2.34-5.59,3.22q-37.32,21-74.6,41.95a9.81,9.81,0,0,1-4.48,1.54,7.23,7.23,0,0,1-3.11-1c-25.72-14.71-51.54-29.24-77.32-43.83-1-.52-1.81-1.21-3.19-2.15a37.39,37.39,0,0,1,3.64-2.73c25.33-14.26,50.74-28.44,76-42.83a9,9,0,0,1,4.29-1.32A9.82,9.82,0,0,1,778.78,462.54ZM614.71,763.86c-5.46-3.37-9.69-6.08-11.82-7.62-.28-31.59-.57-63.42-.86-96.57,28.38,16.84,55.57,33,83.14,49.31q.45,47.84.89,95.76c-3.66-1.4-20.15-10.64-37.62-20.79v-.11ZM602.08,650.09c.32-28.52.75-57,.88-85.56,0-4.24,1.39-6.59,5-8.72,2.23-1.29,4.44-2.61,6.66-3.91,22.77-13.27,45.44-26.7,68.15-40.07a33.89,33.89,0,0,1,3.41-1.62,41.63,41.63,0,0,1,.39,4.36c-.32,29.26-.7,58.52-1,87.78,0,3.06-.75,5.07-3.6,6.74-25.44,14.85-50.78,29.87-76.16,44.83-1,.57-2,1-3.63,1.81C602.15,653.27,602.06,651.67,602.08,650.09Zm81.12,53.33c-24.89-14.3-49.94-28.32-74.92-42.45-1.42-.81-2.76-1.75-4.65-3,1.53-1.1,2.57-2,3.76-2.73,25.34-14.27,50.73-28.47,76-42.83a9.42,9.42,0,0,1,4-1.37,8.33,8.33,0,0,1,4,1.24c25.23,14.44,50.59,28.69,75.89,43,1.26.7,2.42,1.57,4.62,3l-5.63,3.25c-24.72,13.86-49.48,27.66-74.13,41.66a10.58,10.58,0,0,1-4.52,1.54A9.23,9.23,0,0,1,683.2,703.42Zm6.13,10c0-3,.68-5.09,3.56-6.76,25.57-14.95,51.05-30.06,76.55-45.09.83-.49,1.78-.92,3-1.54.15,1.81.37,3.31.36,4.8-.32,29-.7,58.1-1,87.15,0,3-.64,5.11-3.52,6.79-25.74,15-51.4,30.2-77.07,45.32-.69.4-1.46.72-2.72,1.31-.1-2.07-.23-3.46-.21-4.83C688.7,771.54,689.08,742.49,689.33,713.44Zm83.49-57.72c-1.47-.69-2.67-1.21-3.74-1.83q-37.79-22.38-75.59-44.74c-2.69-1.58-3.81-3.33-3.83-6.54-.15-29.45-.48-58.91-.73-88.37,0-1.17.14-2.38.27-4,1.29.59,2.34,1,3.25,1.55q38,22.53,76,45c2.71,1.59,3.85,3.33,3.85,6.53.16,29.46.49,58.91.75,88.37C773.1,652.87,773,654.07,772.82,655.72Zm-83.64-154.9c.31-28.87.7-57.73.92-86.6,0-3.26.75-5.41,3.8-7.2,25.25-14.73,50.39-29.66,75.59-44.52,1.08-.64,2.32-1.19,3.9-2,.1,2.17.25,3.9.23,5.6-.31,28.49-.73,57-.89,85.49,0,4-1.28,6.29-4.77,8.31-24.62,14.36-49.14,28.92-73.69,43.39-1.4.84-2.85,1.66-4.77,2.77C689.34,503.86,689.16,502.33,689.18,500.82Zm1.36-193.72c-.3-32.26-.58-64.08-.88-95.69a6.7,6.7,0,0,1,.83-.46h.09c.95.45,1.93.88,2.84,1.4q39.62,23.49,79.4,47.08c.3,32,.58,63.86.88,97C745.46,339.65,718.17,323.49,690.54,307.1Zm.93,5c25.87,14.79,51.84,29.39,77.76,44.06.78.44,1.47,1,2.7,1.9a43.21,43.21,0,0,1-3.61,2.63q-38.24,21.53-76.45,43.05a9.6,9.6,0,0,1-3.58,1.33,6.54,6.54,0,0,1-3.52-1C658.9,389.28,632.94,374.69,607,360c-.71-.42-1.4-1-2.81-2,1.21-.89,2.09-1.63,3-2.17l.9-.52,13.28-7.46q31.5-17.67,63-35.38a9.94,9.94,0,0,1,3.58-1.36A6.38,6.38,0,0,1,691.47,312.06Zm-5.07-9.48c0,3.28-.85,5.38-3.87,7.15q-37.9,22.17-75.65,44.59c-1,.58-2,1.07-3.33,1.7a11.63,11.63,0,0,1-.69-3c.29-30,.7-60,.93-90a7,7,0,0,1,.33-2.23h0c.64-1.91,2.14-3,4-4.07q30.23-17.69,60.41-35.44c5.89-3.46,11.84-6.84,18.5-10.66.13,2,.3,3.37.28,4.72C687,244.42,686.64,273.5,686.4,302.58Zm-80.56,59.15q38.49,22.75,76.95,45.55c2.09,1.24,3.25,2.57,3.27,5.19.17,30.38.47,60.73.71,91.1a16.67,16.67,0,0,1-.33,2.27c-1.69-.85-3.06-1.47-4.29-2.2-24.86-14.72-49.67-29.5-74.59-44.11-2.87-1.68-4.19-3.45-4.21-6.91-.12-29.25-.46-58.5-.71-87.75,0-1.24.08-2.5.15-4.25A14.57,14.57,0,0,1,605.84,361.73Zm-.53,100.79c25.21,14.43,50.54,28.66,75.82,43,1.25.69,2.4,1.53,4.09,2.64-1.64,1.11-2.73,2-3.94,2.68q-38.24,21.49-76.47,43a8.35,8.35,0,0,1-3.7,1.2,7.27,7.27,0,0,1-3.38-1q-38.33-21.87-76.79-43.49c-1-.57-2-1.31-3.61-2.41,1.48-1,2.63-1.88,3.83-2.6l1.55-.89q35.06-19.68,70.09-39.4l4.53-2.54a9.6,9.6,0,0,1,3.94-1.35A8.24,8.24,0,0,1,605.31,462.52ZM460.8,678.4Q477,688,493.32,697.6c7.67,4.63,13.89,8.48,17.14,10.67A7.18,7.18,0,0,1,512,711c.29,31,.58,62.36.87,95L511,805l-79.34-47a7.26,7.26,0,0,1-2.17-3.75c-.28-31-.57-61.75-.85-92.64,0-.34,0-.63.05-1C432.14,662.05,445.61,669.6,460.8,678.4Zm-31.86-26.85c.31-29.4.68-58.83,1-88.26,0-2.6.51-4.48,3-5.95q39.3-23,78.47-46.21l.13-.06c.38-.18.84-.33,1.68-.64.12,1.87.25,3.26.25,4.63-.33,29.22-.71,58.45-.95,87.7,0,2.92-.89,4.73-3.48,6.25-25.88,15.15-51.68,30.43-77.52,45.63a18.66,18.66,0,0,1-2.05,1A30.47,30.47,0,0,1,428.94,651.55ZM511,703.87c-25.9-14.79-51.88-29.41-77.83-44.09-.8-.46-1.53-1-2.85-1.91a33.66,33.66,0,0,1,3.49-2.7q38.26-21.55,76.53-43.06c.43-.24.84-.42,1.25-.61a6.93,6.93,0,0,1,4.46-.35,7.06,7.06,0,0,1,1.4.58q38.59,22,77.34,43.8c1.06.6,2,1.47,3.39,2.49-1.84,1.19-3.14,2.14-4.52,2.91q-37.8,21.27-75.56,42.52a9.58,9.58,0,0,1-3.79,1.34A6.56,6.56,0,0,1,511,703.87Zm5.14,8.83a6.55,6.55,0,0,1,.19-1.32,7.8,7.8,0,0,1,3.18-4.43c.31-.2.59-.41.93-.61q30.22-17.67,60.4-35.43c5.87-3.44,11.81-6.82,18.56-10.71l.12.52c.09,2.08.2,3.67.18,5.23-.32,28.5-.74,57-.9,85.55,0,4-1.32,6.3-4.79,8.33-24.65,14.36-49.16,28.94-73.74,43.46-1.21.71-2.5,1.44-4,2.33l-.31.1a18,18,0,0,1-.71-3.58C515.51,772.33,515.92,742.51,516.14,712.7Zm83.32-56.92c-1.36-.74-2.69-1.51-4.05-2.27L516.6,606.79c-.28-32-.58-63.75-.87-96.28l.84.28a19.4,19.4,0,0,1,2.93,1.29c25.35,15,50.67,30.06,76,45,2.34,1.38,3.41,2.84,3.42,5.65.19,30,.51,60,.77,90C599.75,653.43,599.63,654.14,599.46,655.78ZM515.81,500.06c.31-28.49.73-57,.89-85.48,0-4,1.26-6.3,4.74-8.33,24.49-14.26,48.82-28.73,73.21-43.13.82-.48,1.64-1,2.54-1.47s1.62-.8,2.74-1.35c.16,2.08.34,3.57.32,5-.3,28.87-.69,57.73-.93,86.59,0,3.23-.64,5.45-3.72,7.25-25.58,14.91-51.07,30-76.59,45a30.31,30.31,0,0,1-3.08,1.45C515.87,503.24,515.79,501.65,515.81,500.06Zm54.88-161-40.36-23.89c-5.42-3.33-9.75-6.08-12.28-7.83a4.79,4.79,0,0,1-.88-1.62c-.28-31.16-.58-62.6-.87-94.09,0-.16,0-.28.08-.49,3.06,1.22,14.1,7.3,27.27,14.85l46.74,27.71c4.14,2.58,7.39,4.67,9.28,6q.44,47.52.88,95.66C597.41,354.15,585.05,347.31,570.69,339.05ZM519.55,313c24.75,14.16,49.63,28.12,74.45,42.16,1.55.88,3,1.88,5.15,3.21-1.92,1.29-3.18,2.27-4.55,3Q556.81,382.61,519,403.86a10.76,10.76,0,0,1-3.09,1.19,7.58,7.58,0,0,1-2.63-.14,8.48,8.48,0,0,1-1.86-.79c-25.57-14.59-51.23-29-76.86-43.54a41.3,41.3,0,0,1-3.45-2.43c1.33-1,2.33-1.82,3.41-2.45l.92-.52c25-14.09,50.1-28.09,75.05-42.3a11.8,11.8,0,0,1,2.37-1.06c.16-.05.32-.06.48-.1a6.87,6.87,0,0,1,1.41-.21A9.51,9.51,0,0,1,519.55,313ZM513,302.43c0,3.33-1,5.38-3.95,7.11-25.27,14.76-50.45,29.69-75.66,44.55-1,.57-2.05,1.06-3.42,1.75a30.06,30.06,0,0,1-.51-4.22c.31-29.26.69-58.52.95-87.78a7.49,7.49,0,0,1,1.94-5.6c.06-.06.09-.13.15-.19A9.84,9.84,0,0,1,434,257c.17-.11.3-.24.49-.35,25.4-14.83,50.7-29.83,76-44.76.69-.38,1.47-.72,2.56-1.2l.64-.27c.11,2.05.25,3.45.23,4.84C513.66,244.29,513.26,273.37,513,302.43Zm-65.5,68.25,61.51,36.45c1.53,1,2.71,1.79,3.55,2.39q.42,47.72.88,95.48c-3.11-1.18-15.48-8-29.84-16.28l-41.28-24.45c-5.59-3.44-9.91-6.22-12.05-7.77-.28-31.23-.57-62.72-.87-95.43C431.05,361.55,438.1,365.35,447.54,370.68Zm-15.84,91.5C457.09,476.69,482.57,491,508,505.41c1.1.63,2.13,1.37,3.71,2.38a30.21,30.21,0,0,1-3.13,2.39Q469.89,532,431.18,553.8a9.57,9.57,0,0,1-1.4.64,7.77,7.77,0,0,1-4.37-.18c-.28-.13-.54-.2-.83-.36q-38.83-22.11-77.77-44c-.73-.41-1.41-1-2.83-2,1.2-.89,2.06-1.61,3-2.15l1.42-.82q37.92-21.3,75.85-42.63a9.09,9.09,0,0,1,3.53-1.2A7.5,7.5,0,0,1,431.7,462.18ZM260.16,662.42q37.32,22.07,74.61,44.16c2.61,1.53,4,3.12,4,6.45.13,29.45.47,58.9.71,88.35,0,1.17-.16,2.36-.33,4.31l-80.37-47.62a7.46,7.46,0,0,1-2.44-4c-.27-31-.56-61.75-.84-93.3,0-.24,0-.45,0-.71C257.54,661.07,258.92,661.68,260.16,662.42Zm-4.57-13c.31-28.31.72-56.61.88-84.93,0-4,1.18-6.32,4.69-8.37q26.11-15.2,52.11-30.66l22.67-13.38,1.63-.94c.54-.29,1.14-.54,2-1a35.66,35.66,0,0,1,.43,4.37c-.31,29.22-.7,58.45-.94,87.7,0,3.11-.85,5.06-3.67,6.71-25.57,14.94-51.06,30-76.58,45-.82.49-1.75.87-3.16,1.52C255.64,652.94,255.56,651.18,255.59,649.41Zm83.66,55.16a8.58,8.58,0,0,1-1.71-.75Q299.22,682,260.73,660.33c-1-.58-2-1.3-3.63-2.41,1.55-1.07,2.74-2,4-2.7l1.37-.78q37.28-20.93,74.55-41.91a9.91,9.91,0,0,1,4-1.4,8.09,8.09,0,0,1,4,1.2c25.21,14.44,50.55,28.66,75.82,43,1.24.71,2.41,1.55,4.11,2.66-1.6,1.11-2.69,2-3.9,2.67q-38.24,21.52-76.45,43a9.92,9.92,0,0,1-2.8,1.08A7.52,7.52,0,0,1,339.25,704.57Zm3.54,9.42c0-3.09.71-5.23,2.93-7a11.93,11.93,0,0,1,1-.72l.44-.29c25.3-14.71,50.47-29.66,75.68-44.52a16.12,16.12,0,0,1,1.5-.75l1.43-.64a20.69,20.69,0,0,1,.57,3.58c-.32,29.64-.69,59.27-1,88.9,0,2.89-.84,4.73-3.45,6.27q-38.61,22.59-77.11,45.4c-.68.39-1.46.72-2.76,1.32-.1-2.3-.24-3.88-.22-5.43C342.17,771.4,342.57,742.7,342.79,714Zm83.46-58.11c-2.13-1.18-3.65-2-5.1-2.86-24.38-14.44-48.7-28.95-73.17-43.23-3.45-2-4.87-4.18-4.89-8.23-.09-28.52-.43-57-.67-85.54,0-1.73.1-3.47.18-5.79a41.15,41.15,0,0,1,3.79,1.78q37.75,22.37,75.53,44.7c2.64,1.56,3.91,3.23,3.93,6.5.13,29.43.46,58.87.71,88.31C426.58,652.69,426.41,653.9,426.25,655.88ZM342.63,501.57c.31-29.27.69-58.53,1-87.78a9.71,9.71,0,0,1,.61-3.67,8.62,8.62,0,0,1,.44-.78,5,5,0,0,1,.33-.47,6.47,6.47,0,0,1,.75-.83,7.47,7.47,0,0,1,1.38-1.06c25.59-14.93,51.08-30,76.6-45,.59-.32,1.25-.66,2-1l1.19-.51.11.49c.07,2.06.16,3.56.14,5-.32,28.69-.71,57.39-.94,86.1,0,3.48-.79,5.73-4,7.64C397,474.31,372,489.19,347,504c-1.09.65-2.31,1.2-3.84,2A36.81,36.81,0,0,1,342.63,501.57Zm80-147.91C395.91,337.82,370,322.48,344,307.06c-.28-31.82-.57-63.5-.87-96.41,1.28.53,2.28.91,3.18,1.32l78.57,46.55a5,5,0,0,1,1.42,2.12c.28,31.59.57,63,.87,95.55C425.66,355.36,424.17,354.5,422.66,353.66Zm-76.27-40.85C371.12,327,396,341,420.82,355c1.44.82,2.8,1.72,4.68,2.9a24.54,24.54,0,0,1-3.06,2.49Q383.7,382.23,344.94,404a9.67,9.67,0,0,1-1.13.54,8.15,8.15,0,0,1-5-.22q-39.56-22.53-79.21-44.94a15.91,15.91,0,0,1-1.77-1.43c.77-.63,1.43-1.17,2-1.64a15.91,15.91,0,0,1,1.43-.94c23.9-13.44,47.84-26.82,71.68-40.39l3.89-2.19a13.67,13.67,0,0,1,2.45-1.11l.32-.09a7.83,7.83,0,0,1,1.49-.24A9.55,9.55,0,0,1,346.39,312.81Zm-6.52-9.65c0,2.62-.64,4.43-3.1,5.88q-39.28,23-78.49,46.21a13.57,13.57,0,0,1-1.71.64c-.11-2-.24-3.38-.21-4.76.32-29.05.7-58.1.94-87.15,0-3.07.74-5.08,3.6-6.75,25.56-14.94,51-30.05,76.55-45.08.82-.48,1.74-.89,2.85-1.43a21.37,21.37,0,0,1,.54,3.61C340.52,243.93,340.14,273.54,339.87,303.16ZM256.46,360l83,49.17c.3,32,.6,63.94.9,96.51a17.18,17.18,0,0,1-3.22-1.19q-38.5-22.79-77-45.6c-2.08-1.22-3.24-2.54-3.26-5.18-.16-30.39-.46-60.77-.71-91.16A21.67,21.67,0,0,1,256.46,360Zm2.77,102.75c24.92,14.26,50,28.31,74.94,42.45,1.4.79,2.73,1.73,4.6,2.95a44.34,44.34,0,0,1-3.82,2.75q-38.28,21.52-76.56,43a14,14,0,0,1-1.62.78,7.52,7.52,0,0,1-4.3-.12c-.23-.11-.45-.15-.69-.28q-15.63-8.92-31.32-17.74v.12q-22.58-12.78-45.18-25.53c-1.41-.81-2.76-1.73-4.64-2.94a42.88,42.88,0,0,1,3.77-2.74l46.05-25.91h0q14.88-8.37,29.73-16.78a9.86,9.86,0,0,1,4.51-1.47A9.42,9.42,0,0,1,259.23,462.73ZM85.33,661.21q38.73,22.9,77.43,45.84c2.1,1.24,3.2,2.61,3.21,5.22q.28,45.54.72,91.08a21.44,21.44,0,0,1-.4,2.49c-2-1-3.45-1.67-4.84-2.49-24.84-14.71-49.67-29.49-74.57-44.14-2.85-1.66-4.16-3.43-4.16-6.91-.12-29.26-.46-58.5-.71-87.75,0-1.29.1-2.57.17-4.31A14.53,14.53,0,0,1,85.33,661.21Zm-3.1-11c.32-28.52.72-57,.91-85.55,0-3.94,1.1-6.35,4.66-8.43,24.83-14.42,49.52-29.07,74.27-43.64,1.37-.81,2.85-1.45,4.92-2.51.12,2.41.29,4.18.27,5.94-.32,28.52-.72,57-.9,85.56,0,4-1.16,6.33-4.69,8.38C137,624.3,112.49,638.88,87.93,653.41c-1.52.89-3.07,1.75-5.41,3.1C82.4,653.74,82.23,652,82.23,650.19Zm80.62,52.9C138,688.83,113,674.78,88,660.65c-1.39-.79-2.67-1.77-4.7-3.14l5.27-3c25-14,50.07-28,75-42.2,3.14-1.78,5.46-1.81,8.62,0Q196,625.92,219.9,639.35v.1q14.26,8.06,28.52,16.12c.92.52,1.76,1.2,3.51,2.4l-.34.22c-2.06,1.19-3.44,2-4.8,2.74L219.9,676.06v.27q-23.75,13.33-47.44,26.79C169,705.11,166.34,705.08,162.85,703.09Zm6.62,10.12c0-2.93.9-4.73,3.49-6.25q23.79-13.92,47.5-28v0l27.27-16.1,2.53-1.47c.7-.39,1.48-.75,2.66-1.33.13,2.25.27,3.77.25,5.27-.3,28.87-.71,57.74-.94,86.6,0,3.32-.92,5.38-3.9,7.12-9.49,5.54-19,11.14-28.43,16.72v.27l-49.26,29a11.61,11.61,0,0,1-1.87.57c-.1-1.69-.26-2.94-.24-4.17C168.85,772.06,169.22,742.64,169.47,713.21ZM223,638.3l-53.05-31.45q-.45-47.93-.89-96c2.5.49,28.35,15.17,50.87,28.47v.48L249,557.08c1.39.91,2.51,1.66,3.33,2.25q.44,47.7.88,95.48C250.12,653.63,237.53,646.67,223,638.3Zm-53.9-136.2c.31-29.63.72-59.25.93-88.88,0-3.56,1.66-5.24,4.43-6.86q33.84-19.74,67.6-39.64c3.28-1.93,6.63-3.84,10.63-6.14l.7-.32c.16,1.87.41,3.38.39,4.84-.31,29.08-.68,58.15-.95,87.22,0,3-.58,5.1-3.49,6.81q-14.73,8.6-29.41,17.29v.27q-23.16,13.63-46.31,27.3c-1.09.65-2.26,1.16-3.85,2A23.66,23.66,0,0,1,169.07,502.1Zm3.07-189.83q23.85,13.58,47.76,27v.18l28.92,16.36c1.08.6,2.06,1.36,3.93,2.59l0,0-5.21,3q-13.8,7.74-27.6,15.52v.26q-23.64,13.29-47.26,26.6c-2.87,1.62-5.11,1.88-8.13.15C139,389.43,113.3,375,87.7,360.52c-.94-.52-1.81-1.19-3.24-2.13A36.83,36.83,0,0,1,88,355.74Q126.51,334.1,165,312.46C167.51,311,169.51,310.77,172.14,312.27Zm-5.23-9.86c0,3.38-1.1,5.36-4,7.07-25.41,14.85-50.74,29.84-76.1,44.76-1,.56-2,1-3.38,1.69a24,24,0,0,1-.63-3.8q.48-44.42,1-88.81c0-2.62.62-4.47,3.07-5.92q39.3-23,78.48-46.19a21.32,21.32,0,0,1,2.26-.87c.12,2.06.28,3.49.27,4.92C167.51,244.31,167.12,273.37,166.91,302.41ZM88,362.79c24.86,14.71,49.7,29.5,74.6,44.16,2.65,1.55,3.94,3.2,3.94,6.47.15,29.47.47,58.93.74,88.38,0,1.1-.09,2.21-.13,3.17a6.6,6.6,0,0,1-.63.42c-.16.06-.38.17-.5.11a33,33,0,0,1-3-1.45Q123.39,480.56,83.62,457c-.29-32.09-.59-63.91-.88-96.88C85.16,361.32,86.64,362,88,362.79Zm-1.9,99.75q37.6,21.48,75.41,42.7c1.27.72,2.44,1.59,4.65,3-2.46,1.41-4,2.34-5.59,3.22q-37.32,21-74.6,41.95c-2.75,1.55-5,2.32-8.15.53C52.13,539.25,26.3,524.72.52,510.13c-.95-.52-1.81-1.21-3.19-2.15A36.25,36.25,0,0,1,1,505.25C26.3,491,51.71,476.81,77,462.42,80.35,460.51,82.84,460.67,86.12,462.54Zm-90,250.9c0-3,.68-5.09,3.57-6.76,25.57-14.95,51-30.06,76.54-45.09,1-.57,2-1,3.58-1.8.15,1.94.41,3.49.39,5.06-.32,29-.7,58.1-1,87.15,0,3-.64,5.11-3.52,6.79C50,773.81,24.32,789-1.35,804.11c-.79.46-1.65.79-3.27,1.57-.1-2.22-.24-3.66-.22-5.09C-4.52,771.54-4.14,742.49-3.89,713.44Zm-6.12-10C-34.91,689.12-60,675.1-84.94,661c-1.41-.81-2.76-1.75-4.65-3,1.53-1.1,2.57-2,3.77-2.73,25.34-14.27,50.73-28.47,76-42.83,3.09-1.75,5.43-2,8.64-.13,25.23,14.44,50.59,28.69,75.9,43,1.25.7,2.41,1.57,4.61,3l-5.63,3.25C49,675.45,24.24,689.25-.41,703.25-3.83,705.19-6.43,705.47-10,703.42ZM80.14,656c-1.75-.85-3.07-1.38-4.28-2.08Q38.08,631.51.28,609.15c-2.7-1.58-3.82-3.33-3.83-6.54-.15-29.45-.49-58.91-.73-88.37,0-1.24.15-2.48.28-4.27,1.58.74,2.75,1.19,3.79,1.79q38,22.53,76,45c2.71,1.59,3.85,3.33,3.86,6.53.15,29.46.48,58.91.74,88.37C80.45,652.93,80.27,654.16,80.14,656ZM-4,500.82c.31-28.87.7-57.73.93-86.6,0-3.26.74-5.41,3.79-7.2,25.25-14.73,50.4-29.66,75.59-44.52,1.22-.72,2.55-1.28,4.45-2.23.1,2.31.26,4.08.24,5.86-.31,28.49-.73,57-.89,85.49,0,4-1.28,6.29-4.76,8.31-24.63,14.36-49.15,28.92-73.7,43.39-1.53.92-3.1,1.8-5.31,3.08C-3.85,504-4,502.41-4,500.82ZM-2.68,307.1C-3,274.84-3.26,243-3.55,211.41a6.19,6.19,0,0,1,.82-.46.74.74,0,0,1,.51-.08c1,.48,2,.92,3,1.47q39.62,23.49,79.4,47.08c.3,32.14.58,64.07.89,97.29Zm1.49,5c25.87,14.79,51.84,29.39,77.77,44.06.77.44,1.46,1,2.69,1.9a43.21,43.21,0,0,1-3.61,2.63Q37.43,382.18-.79,403.7c-2.6,1.46-4.73,2-7.65.37C-34.32,389.28-60.28,374.69-86.21,360c-.77-.45-1.46-1-3.12-2.22,2.16-1.25,3.57-2.08,5-2.88q37.78-21.19,75.54-42.42C-6.24,311-4.13,310.4-1.19,312.06Zm-9.88,191.58c-24.85-14.72-49.67-29.5-74.58-44.11-2.87-1.68-4.19-3.45-4.21-6.91-.13-29.25-.46-58.5-.72-87.75,0-1.29.09-2.57.16-4.42a20.36,20.36,0,0,1,3.6,1.28q38.49,22.75,76.95,45.55c2.09,1.24,3.25,2.57,3.27,5.19.17,30.38.47,60.73.71,91.1a21.27,21.27,0,0,1-.37,2.52C-8.22,505.09-9.71,504.45-11.07,503.64Zm-79.18,60.89c0-4.27,1.39-6.63,5.06-8.76,25-14.52,49.84-29.28,74.74-43.94,1.07-.64,2.27-1.07,3.95-1.85.17,1.84.42,3.22.41,4.59-.32,29.26-.7,58.52-1,87.78,0,3.06-.75,5.07-3.6,6.74C-36.08,623.94-61.42,639-86.8,653.92-87.86,654.56-89,655-91,656c-.08-2.62-.18-4.26-.15-5.9C-90.82,621.57-90.39,593.05-90.25,564.53Zm-.07,191.71c-.28-31.69-.58-63.63-.87-96.9L-7.49,709q.45,47.91.89,95.93C-10.76,804.19-79.21,764.32-90.32,756.24Zm-1.36,194.07c.3-28.85.7-57.72.93-86.58,0-3.3.84-5.4,3.84-7.15,25.25-14.76,50.4-29.69,75.6-44.53,1.21-.73,2.52-1.27,4.32-2.14.13,2.11.33,3.7.32,5.3-.32,28.69-.75,57.37-.9,86,0,4-1.37,6.28-4.82,8.29-24.47,14.26-48.82,28.71-73.2,43.11-1.71,1-3.42,2-5.76,3.31C-91.5,953.51-91.7,951.91-91.68,950.31Zm165.93,10Q36,981.83-2.27,1003.34c-2.45,1.39-4.46,1.92-7.15.37q-39.09-22.26-78.32-44.37c-.75-.43-1.4-1-2.73-2,1.79-1.18,2.82-2,3.92-2.59,25-14.08,50.11-28.06,75.05-42.29,3.84-2.19,6.73-2.27,10.61,0,24.57,14.12,49.29,28,74,41.92,1.55.88,3,1.88,5.16,3.19C76.55,958.72,75.46,959.61,74.25,960.29ZM-4,906.56q-.45-48-.88-96c4.83,1.18,69.87,39.1,83.71,48.66.3,31.66.58,63.65.89,97ZM77.2,853.78Q38.62,831.78-.1,810c-.93-.52-1.77-1.21-3.16-2.18,1.67-1.15,2.93-2.12,4.27-2.9q38-21.35,76-42.71c2.63-1.48,4.75-2,7.63-.3,25.71,14.69,51.52,29.19,77.28,43.77.93.52,1.77,1.19,3.54,2.42-2.1,1.2-3.37,2-4.65,2.67q-38,21.33-76,42.72C82.19,855,80.07,855.43,77.2,853.78ZM81.45,951c.31-29.25.69-58.52,1-87.77,0-3,.59-5.14,3.5-6.83,25.75-15,51.41-30.26,77.11-45.4a34.59,34.59,0,0,1,3.24-1.37c.1,2.21.24,3.67.22,5.12q-.48,43.63-.94,87.23c0,3-.63,5.09-3.52,6.79q-38.4,22.41-76.64,45.1c-.92.54-1.92,1-3.42,1.67A38.58,38.58,0,0,1,81.45,951Zm164.67,10.1q-13.1,7.36-26.22,14.71v.28q-24,13.47-48,27c-3.25,1.85-5.72,2.05-9.12.09-25.06-14.37-50.26-28.5-75.41-42.72-1.28-.71-2.49-1.55-4.2-2.64a22.75,22.75,0,0,1,3-2.48q38.72-21.82,77.48-43.63c2.28-1.29,4.2-1.75,6.68-.34Q195,925.56,219.9,939.58v.12l26.85,15.18c1.37.79,2.63,1.77,4.72,3.18C249.2,959.36,247.68,960.26,246.12,961.13Zm6.26-5.85c-.68-.22-1.29-.41-1.85-.61l-30.07-17.81v.2q-24.09-14.28-48.18-28.53c-2.08-1.24-3.23-2.56-3.25-5.2q-.25-45.57-.73-91.16a15,15,0,0,1,.21-1.62c2.45.35,28.51,15.08,51.39,28.64v.6q14.07,8.34,28.15,16.66c2.68,1.57,3.83,3.31,3.85,6.52.15,29.46.49,58.91.74,88.38C252.64,952.42,252.52,953.54,252.38,955.28Zm1.38-100.94-.37,0a9.55,9.55,0,0,1-1.7-.36,13.54,13.54,0,0,1-2.61-1.17c-9.51-5.48-19.07-10.88-28.62-16.29v.15q-22.47-12.75-45-25.45c-1.75-1-3.46-2-5.79-3.35a46,46,0,0,1,3.88-2.88l46.88-26.36h0q14.6-8.22,29.17-16.45c.23-.13.47-.24.69-.34s.5-.23.75-.34a7.66,7.66,0,0,1,5-.34,10.52,10.52,0,0,1,1.82.81c25.39,14.53,50.92,28.85,76.39,43.26,1.07.62,2.07,1.4,3.93,2.71-4.63,2.66-8.44,4.91-12.29,7.08-22.28,12.52-44.63,24.94-66.84,37.6A11,11,0,0,1,253.76,854.34ZM255,951.93c.31-29.82.71-59.63.92-89.45a7.47,7.47,0,0,1,.19-1.25,8.15,8.15,0,0,1,3.43-4.61c.25-.16.46-.32.72-.47q30.24-17.65,60.4-35.43c5.9-3.47,11.86-6.84,18.5-10.66.17,1.73.36,2.92.35,4.08-.32,29.45-.72,58.9-.94,88.34a6.81,6.81,0,0,1-3.86,6.61q-38.13,22.33-76.12,44.9c-.82.48-1.75.89-2.91,1.45A15.54,15.54,0,0,1,255,951.93Zm165.39,8.16q-38.24,21.52-76.46,43a8.67,8.67,0,0,1-3.74,1.27,6.93,6.93,0,0,1-3.35-1c-25.7-14.69-51.51-29.21-77.27-43.78-.94-.53-1.78-1.22-3.56-2.44,2.54-1.45,4.28-2.49,6.05-3.47q34.53-19.38,69-38.81l5.11-2.88a12.8,12.8,0,0,1,2.11-.95l.26-.08a7.4,7.4,0,0,1,1.43-.25,8.69,8.69,0,0,1,4.66,1.3c24.87,14.27,49.89,28.3,74.86,42.42,1.4.8,2.74,1.73,4.67,2.94C422.63,958.52,421.56,959.42,420.38,960.09Zm1.56-6.61q-37.74-22.37-75.5-44.68c-2.67-1.57-3.86-3.28-3.87-6.5-.14-29.24-.47-58.49-.72-87.74,0-1.3.16-2.62.31-4.63l2.23,1.14,78.49,46.5a7.22,7.22,0,0,1,2.08,3.15c.29,31.35.58,62.59.88,94.84C424,954.6,422.94,954.08,421.94,953.48Zm5.55-98.74a8.12,8.12,0,0,1-4-1.24c-25.24-14.44-50.59-28.67-75.89-43-1.22-.69-2.38-1.53-4-2.61.4-.35.76-.69,1.1-1a21.1,21.1,0,0,1,2.53-1.78q31.57-17.79,63.16-35.59l13.08-7.36a12.54,12.54,0,0,1,1.77-.82l.23-.1a6.53,6.53,0,0,1,1.65-.3,8.08,8.08,0,0,1,4.21,1.22c25.24,14.46,50.59,28.69,75.9,43,1.18.67,2.32,1.51,4.32,2.84l.22.19c-2.3,1.33-3.7,2.16-5.12,2.95-25,14-50.1,28-75.08,42.22A9.51,9.51,0,0,1,427.49,854.74Zm.66,95c.34-28.68.71-57.37,1-86a9,9,0,0,1,1.1-4.93l.25-.33a6.82,6.82,0,0,1,.78-.86,9.2,9.2,0,0,1,1.47-1.09s0,0,.07-.05c25.42-14.83,50.73-29.86,76.08-44.8l.62-.32c.82-.41,1.69-.82,2.74-1.32a38.63,38.63,0,0,1,.42,4.26c-.32,29.24-.71,58.47-.95,87.71,0,3.09-.81,5.06-3.65,6.71-25.57,14.94-51.06,30-76.58,45.05-.82.49-1.75.87-3.12,1.51C428.25,952.89,428.14,951.3,428.15,949.73Zm168.73,8.79c-1.72,1-3.06,1.78-4.39,2.52-24.85,14-49.74,27.85-74.51,42a8.93,8.93,0,0,1-4.94,1.33,10.45,10.45,0,0,1-4.1-1.41c-24.89-14.26-49.89-28.3-74.87-42.42-1.38-.78-2.66-1.78-4.4-3,1.89-1.19,3.21-2.13,4.61-2.93Q465.65,937,497,919.35c4.28-2.41,8.56-4.8,12.83-7.21.25-.14.48-.22.72-.34a9.65,9.65,0,0,1,1.25-.56,6,6,0,0,1,.7-.18,6.74,6.74,0,0,1,1.17-.17,9,9,0,0,1,4.18,1.3c25,14.34,50.23,28.48,75.35,42.69,1.36.78,2.62,1.75,4.54,3Zm2.08-3.39a14.85,14.85,0,0,1-3-1.07q-38.49-22.77-77-45.56c-2.08-1.24-3.26-2.56-3.27-5.19q-.29-45.52-.72-91.09a18.41,18.41,0,0,1,.33-2.29c1.69.84,3,1.47,4.28,2.2q37.29,22.08,74.57,44.15a11.45,11.45,0,0,1,2.82,2.18c.1.12.22.24.31.37a6.09,6.09,0,0,1,1.12,3.76c.11,29.79.46,59.61.72,89.42C599.18,952.88,599.06,953.78,599,955.13Zm1.21-100.8a10.54,10.54,0,0,1-4.6-1.55c-24.71-14.19-49.57-28.14-74.36-42.18-1.41-.79-2.75-1.74-4.67-3,1.41-1,2.32-1.77,3.35-2.36q38.72-21.76,77.45-43.53a11.11,11.11,0,0,1,1.31-.63,5.76,5.76,0,0,1,3.57-.17,6.49,6.49,0,0,1,1.23.5q39.31,22.38,78.71,44.62a24.14,24.14,0,0,1,2.43,1.92c-2.29,1.31-3.86,2.24-5.47,3.14-24.68,13.88-49.41,27.67-74,41.72A9.79,9.79,0,0,1,600.17,854.33Zm1.67,101.21c-.15-2.21-.32-3.73-.31-5.23.31-28.85.71-57.72.93-86.58,0-3.3.85-5.4,3.85-7.15,25.25-14.76,50.4-29.69,75.6-44.53,1.07-.65,2.28-1.18,3.78-1.89.13,2,.31,3.52.3,5.05-.32,28.69-.75,57.37-.9,86,0,4-1.37,6.28-4.82,8.29-24.47,14.26-48.82,28.71-73.2,43.11-1.42.83-2.86,1.65-4.63,2.67Zm165.07,4.75q-38.25,21.54-76.52,43.05a9,9,0,0,1-3.36,1.25,6,6,0,0,1-3.23-.88q-39.09-22.26-78.32-44.37a28.06,28.06,0,0,1-2.5-1.84,29.71,29.71,0,0,1,3-2.32l.72-.44c25-14.08,50.11-28.06,75.05-42.29a10.93,10.93,0,0,1,5-1.63,10.46,10.46,0,0,1,5,1.61c24.57,14.12,49.29,28,74,41.92,1.55.88,3,1.88,5.16,3.19C769.2,958.72,768.12,959.61,766.91,960.29ZM689.2,906.56q-.45-47.88-.88-95.85c7.88,3.09,69.69,39.16,83.15,48.46.3,31.56.58,63.44.89,96.67Zm84.73-51.77a6.87,6.87,0,0,1-3.52-1q-38.56-22-77.3-43.76c-.92-.52-1.76-1.21-3.15-2.18,1.67-1.15,2.92-2.12,4.27-2.9q38-21.35,76-42.71a9.29,9.29,0,0,1,3.57-1.29,6.68,6.68,0,0,1,3.51,1c25.71,14.69,51.52,29.19,77.28,43.77.93.52,1.77,1.19,3.54,2.42-2.1,1.2-3.37,2-4.65,2.67q-38,21.33-76,42.72A9.22,9.22,0,0,1,773.93,854.79Zm.74,96.24c.3-29.25.68-58.52,1-87.77,0-3,.59-5.14,3.5-6.83,25.75-15,51.41-30.26,77.1-45.4a22.3,22.3,0,0,1,2.7-1.15c.1,2.08.23,3.5.21,4.9q-.48,43.63-.94,87.23c0,3-.63,5.09-3.52,6.79Q816.27,931.21,778,953.9c-.79.47-1.71.87-2.9,1.43A33.16,33.16,0,0,1,774.67,951Zm164.48,10.19c-24.89,14-49.79,27.86-74.62,41.94a9.9,9.9,0,0,1-4.26,1.43,8.85,8.85,0,0,1-4.3-1.34c-25.06-14.37-50.27-28.5-75.42-42.72-1.28-.71-2.48-1.55-4.19-2.64a22.73,22.73,0,0,1,3-2.48q38.71-21.82,77.49-43.63a8.32,8.32,0,0,1,3.13-1.15,5.68,5.68,0,0,1,3,.81q39.59,22.53,79.26,44.94a22.2,22.2,0,0,1,2.19,1.83C942.24,959.45,940.71,960.36,939.15,961.22Zm6.45-5.94a15.34,15.34,0,0,1-3.1-1.16q-38.52-22.79-77-45.59c-2.08-1.24-3.23-2.56-3.25-5.2-.17-30.38-.47-60.76-.73-91.16a10.76,10.76,0,0,1,.19-1.47c4.53,1.67,29.53,15.85,51.41,28.82v.27l20.48,12.12c4,2.5,7.43,4.68,9.87,6.33a5.85,5.85,0,0,1,1.38,2.5c.29,31,.57,61.8.86,93.21C945.67,954.36,945.64,954.79,945.6,955.28Zm1.17-100.92a11.9,11.9,0,0,1-5.1-1.75c-24.23-14-48.63-27.64-73-41.41-1.74-1-3.45-2-5.78-3.35A46,46,0,0,1,866.8,805c25.19-14.17,50.42-28.27,75.54-42.55a10.11,10.11,0,0,1,4.67-1.5,9.35,9.35,0,0,1,4.4,1.36c24.9,14.28,49.94,28.33,74.92,42.45,1.42.8,2.76,1.73,5.08,3.22-4.75,2.73-8.55,4.95-12.39,7.12-19.27,10.82-38.57,21.58-57.77,32.51-3,1.68-6,3.34-8.92,5A10.9,10.9,0,0,1,946.77,854.36Zm1.5,100.86c-.12-2.17-.24-3.74-.23-5.25.31-28.53.76-57.05.87-85.57,0-4.34,1.52-6.61,5.15-8.7,24.56-14.28,49-28.78,73.48-43.19l.61-.34c1.17-.68,2.46-1.28,4.21-2.15,0,0,0,.07,0,.11.06,2.44.15,4,.14,5.59-.33,28.53-.73,57-.91,85.57,0,3.93-1.14,6.32-4.67,8.38l-.35.21c-24.54,14.29-48.95,28.81-73.4,43.26l-2,1.16c-.79.42-1.65.81-2.8,1.38C948.35,955.51,948.31,955.38,948.27,955.22Zm165.15,4.94q-38.2,21.54-76.45,43.06a14.36,14.36,0,0,1-1.44.69,9.09,9.09,0,0,1-1,.35l-.09,0a5.75,5.75,0,0,1-2.61,0,7.58,7.58,0,0,1-1.91-.8c-25.7-14.68-51.51-29.19-77.28-43.77-.94-.54-1.77-1.22-3.56-2.45,2.2-1.28,3.61-2.1,5.06-2.92q37.75-21.2,75.52-42.43a10.67,10.67,0,0,1,2.77-1.12,6.57,6.57,0,0,1,4.3.78c25.72,14.68,51.53,29.19,77.29,43.76.94.53,1.78,1.19,3.21,2.17C1115.68,958.59,1114.61,959.49,1113.42,960.16Zm5.26-4.51-1.51-.78-79.8-47.3a5.77,5.77,0,0,1-1.66-2.52c-.29-31.3-.58-62.79-.88-95.12,2.11,1.09,3.63,1.8,5,2.64,24.52,14.52,49,29.14,73.61,43.51,3.53,2.06,4.66,4.33,4.68,8.32.08,28.31.43,56.63.68,85C1118.84,951.08,1118.75,952.86,1118.68,955.65Zm1.81-100.89a8.94,8.94,0,0,1-4.3-1.33c-25.06-14.38-50.26-28.51-75.41-42.75-1.27-.71-2.49-1.54-4.19-2.63a22.57,22.57,0,0,1,3-2.47q38.73-21.84,77.49-43.64a10.87,10.87,0,0,1,2-.88,6.14,6.14,0,0,1,4.1.54q39.58,22.54,79.26,44.94a23.84,23.84,0,0,1,2.19,1.85l-5.23,3c-24.89,14-49.8,27.86-74.63,41.93a13.25,13.25,0,0,1-2.3,1.06c-.13,0-.26,0-.39.08A8,8,0,0,1,1120.49,854.76Zm1,100.49c-.14-2-.32-3.55-.3-5.09.32-28.86.71-57.71.93-86.59,0-3.28.86-5.39,3.86-7.14,25.26-14.77,50.4-29.69,75.6-44.54,1.07-.63,2.28-1.15,3.77-1.87.13,2,.32,3.54.3,5.06-.31,28.69-.73,57.36-.89,86,0,4-1.35,6.28-4.77,8.28l-5.94,3.49c-22.81,13.31-45.53,26.76-68.3,40.16-1.23.72-2.57,1.35-4.22,2.17Zm165.27,5.15q-17.23,9.71-34.48,19.4l-6,3.36q-18,10.1-35.91,20.2a8.07,8.07,0,0,1-7.65.08c-25.55-14.6-51.2-29-76.81-43.51-.93-.52-1.77-1.21-3.52-2.42,2.08-1.19,3.35-2,4.63-2.66q38-21.35,76-42.71a9.15,9.15,0,0,1,3.55-1.29,6.8,6.8,0,0,1,1.82.27,8.53,8.53,0,0,1,1.71.71c25.71,14.69,51.52,29.2,77.29,43.78.92.51,1.76,1.21,3.16,2.16A45.64,45.64,0,0,1,1286.76,960.4Zm5.2-5.17-1.62-.49a20.68,20.68,0,0,1-2.21-1.11q-37.76-22.33-75.5-44.71c-2.37-1.39-3.88-2.75-3.88-6-.13-29.8-.47-59.6-.73-89.41,0-1,.17-2,.34-3.72l.21.1c2.06,1.14,3.53,1.94,5,2.78,24.36,14.43,48.7,28.95,73.15,43.25,3.45,2,4.84,4.18,4.85,8.25.07,28.52.42,57,.65,85.53C1292.19,951.39,1292.07,953.08,1292,955.23Zm2.44-101a7.57,7.57,0,0,1-3.23-.24,13.2,13.2,0,0,1-2.55-1.17c-24.71-14.2-49.58-28.13-74.37-42.18-1.41-.79-2.75-1.73-4.67-3,1.39-1,2.3-1.77,3.32-2.34q38.73-21.78,77.44-43.55a7.18,7.18,0,0,1,3.4-1.06,7.42,7.42,0,0,1,3.2,1q22.05,12.54,44.16,25v-.16l34.28,19.43a24.14,24.14,0,0,1,2.43,1.92c-2.29,1.31-3.87,2.24-5.47,3.14l-31.24,17.54v0q-21.51,12.08-42.93,24.27a13.14,13.14,0,0,1-2.13,1,11,11,0,0,1-1.18.33Zm.16,96.46c.32-29,.7-58.09,1-87.14,0-3,.65-5.1,3.53-6.78q21.35-12.47,42.61-25.05v-.3q16.45-9.71,32.92-19.42c1.21-.73,2.52-1.27,4.32-2.14.13,2.11.33,3.7.31,5.3-.31,28.69-.74,57.37-.9,86,0,4-1.36,6.28-4.81,8.29q-16.23,9.47-32.39,19v0l-44.57,26.24a11.26,11.26,0,0,1-1.76.66C1294.68,953.52,1294.54,952.13,1294.56,950.74Zm165.57,9.55q-38.25,21.54-76.52,43.05c-2.45,1.39-4.46,1.92-7.15.37q-17.37-9.88-34.81-19.71v-.17q-21.64-12.27-43.3-24.5c-.64-.35-1.2-.84-2.36-1.66a30.13,30.13,0,0,1,3.4-2.64q21.12-11.91,42.26-23.78V931q16.39-9.21,32.73-18.5c3.83-2.19,6.72-2.27,10.61,0,24.57,14.12,49.28,28,74,41.92,1.55.88,3,1.88,5.16,3.19C1462.42,958.72,1461.34,959.61,1460.13,960.29Zm-78.27-53.73q-.45-48-.88-96c4.83,1.18,69.87,39.1,83.7,48.66.3,31.66.59,63.65.9,97Zm81.21-52.78q-38.57-22-77.3-43.76c-.92-.52-1.76-1.21-3.16-2.18,1.68-1.15,2.93-2.12,4.28-2.9q38-21.35,76-42.71c2.63-1.48,4.75-2,7.64-.3,25.7,14.69,51.52,29.19,77.28,43.77.93.52,1.77,1.19,3.54,2.42-2.1,1.2-3.37,2-4.65,2.67q-38,21.33-76,42.72C1468.07,855,1466,855.43,1463.07,853.78Zm4.26,97.25c.3-29.25.68-58.52,1-87.77,0-3,.59-5.14,3.5-6.83,25.75-15,51.41-30.26,77.1-45.4.77-.44,1.65-.7,3.25-1.37.1,2.21.24,3.67.22,5.12q-.48,43.63-.94,87.23c0,3-.63,5.09-3.52,6.79q-38.42,22.41-76.65,45.1c-.91.54-1.92,1-3.41,1.67A38.58,38.58,0,0,1,1467.33,951Zm165,10.19c-24.89,14-49.8,27.86-74.62,41.94-3.26,1.85-5.72,2.05-9.12.09-25.06-14.37-50.27-28.5-75.41-42.72-1.29-.71-2.49-1.55-4.2-2.64a22.73,22.73,0,0,1,3-2.48q38.71-21.82,77.49-43.63c2.27-1.29,4.2-1.75,6.67-.34q39.6,22.53,79.26,44.94a21.79,21.79,0,0,1,2.2,1.83C1635.46,959.45,1633.92,960.36,1632.37,961.22Zm2.79-7.1q-38.52-22.79-77-45.59c-2.08-1.24-3.23-2.56-3.25-5.2q-.26-45.57-.73-91.16a15,15,0,0,1,.21-1.62c3.94.57,69.19,38.47,83.67,48.63.29,32,.59,63.85.88,96.32A23.82,23.82,0,0,1,1635.16,954.12Zm-.83-101.51c-24.23-14-48.63-27.64-73-41.41-1.74-1-3.45-2-5.78-3.35a44.4,44.4,0,0,1,3.88-2.88c25.19-14.17,50.42-28.27,75.54-42.55,3.43-1.95,6.06-2.17,9.63-.14,24.9,14.28,49.94,28.33,74.92,42.45,1.42.8,2.75,1.73,5.07,3.22-4.74,2.73-8.54,4.95-12.38,7.12-22.29,12.52-44.65,24.91-66.83,37.63C1641.33,855.05,1638.33,854.91,1634.33,852.61ZM1640.7,950c.31-28.53.76-57.05.87-85.57,0-4.34,1.52-6.61,5.15-8.7,24.67-14.34,49.21-28.9,73.79-43.37,1.38-.82,2.86-1.46,5.07-2.58.07,2.68.17,4.33.15,6-.32,28.53-.72,57-.9,85.57,0,3.93-1.15,6.33-4.69,8.39-24.65,14.36-49.17,28.94-73.73,43.46-1.54.9-3.08,1.78-5.42,3.12C1640.86,953.49,1640.68,951.71,1640.7,950Zm165.93,10.19q-38.2,21.54-76.44,43.06c-2.62,1.48-4.75,1.95-7.65.29-25.7-14.68-51.51-29.19-77.28-43.77-.94-.54-1.77-1.22-3.57-2.45l5.07-2.92q37.77-21.2,75.52-42.43c2.61-1.47,4.72-2,7.63-.34,25.72,14.68,51.53,29.19,77.29,43.76.93.53,1.78,1.19,3.2,2.17C1808.9,958.59,1807.83,959.49,1806.63,960.16Zm5.26-4.07-83.51-49.5c-.29-31.9-.59-64-.89-96.94,2.43,1.27,4.06,2,5.57,2.92,24.53,14.52,49,29.14,73.61,43.51,3.54,2.06,4.67,4.33,4.68,8.32.09,28.31.44,56.63.69,85C1812.06,951.18,1812,953,1811.89,956.09Zm-3-102.66c-25.06-14.38-50.26-28.51-75.41-42.75-1.27-.71-2.49-1.54-4.19-2.63a23.25,23.25,0,0,1,3-2.47q38.73-21.84,77.49-43.64c2.27-1.28,4.2-1.74,6.68-.34q39.58,22.54,79.26,44.94a24.35,24.35,0,0,1,2.18,1.85c-2.15,1.23-3.68,2.13-5.23,3-24.88,14-49.8,27.86-74.62,41.93C1814.71,855.19,1812.25,855.37,1808.85,853.43Zm5,96.73c.32-28.86.71-57.71.93-86.59,0-3.28.85-5.39,3.86-7.14,25.26-14.77,50.4-29.69,75.6-44.54,1.2-.72,2.52-1.24,4.31-2.12.13,2.12.34,3.72.32,5.31-.31,28.69-.74,57.36-.89,86,0,4-1.35,6.3-4.8,8.31-24.8,14.43-49.47,29.06-74.21,43.62-1.38.81-2.85,1.47-4.8,2.46C1814,953.36,1813.83,951.77,1813.85,950.16ZM1980,960.4q-38.22,21.51-76.46,43c-2.63,1.49-4.75,1.93-7.65.3-25.7-14.69-51.51-29.2-77.28-43.78-.93-.52-1.77-1.21-3.52-2.42,2.08-1.19,3.35-2,4.63-2.66q38-21.35,76-42.71c2.62-1.48,4.74-2,7.63-.31,25.72,14.69,51.53,29.2,77.3,43.78.91.51,1.76,1.21,3.16,2.16A45.64,45.64,0,0,1,1980,960.4Zm-73.24-147.69c24.36,14.43,48.69,28.95,73.15,43.25,3.44,2,4.83,4.18,4.85,8.25.06,28.52.42,57,.65,85.53,0,1.78-.13,3.58-.24,6-1.84-.88-3.15-1.38-4.36-2.1q-37.76-22.33-75.5-44.71c-2.37-1.39-3.88-2.75-3.88-6-.13-29.8-.47-59.6-.73-89.41,0-1,.19-2.11.37-4C1903.53,810.91,1905.15,811.77,1906.74,812.71ZM1985,753.27c0,2.4-.57,4.14-2.86,5.48q-39.32,23.09-78.53,46.29a18.85,18.85,0,0,1-2.48.92c-.08-2.42-.22-4.21-.19-6,.31-28.52.72-57,.89-85.57,0-4,1.32-6.32,4.79-8.33,24.82-14.45,49.52-29.1,74.26-43.67,1.27-.75,2.54-1.47,4.33-2.5a21.89,21.89,0,0,1,.77,3.94C1985.67,693.65,1985.29,723.46,1985,753.27Zm-79.68-241.38q38.3,22.64,76.51,45.32c2,1.2,3.41,2.37,3.42,5.08.15,30.57.44,61.13.69,91.7a10.39,10.39,0,0,1-.49,1.85c-14.22-7.7-27.75-16.22-41.52-24.3s-27.7-16.43-41.62-24.68c-.29-32.13-.59-63.94-.87-96.41A26.32,26.32,0,0,1,1905.31,511.89Zm80.26-59.52c0,3.06-.7,5.09-3.57,6.77-25.73,15-51.37,30.21-77.07,45.33-.77.45-1.65.78-3.23,1.53-.09-2.25-.23-3.69-.21-5.12.32-29.05.7-58.1,1-87.16,0-3,.73-5,3.6-6.73,25.56-14.93,51-30,76.54-45.09,1-.56,2-1,3.45-1.71a34.88,34.88,0,0,1,.48,4.48C1986.21,393.91,1985.81,423.15,1985.57,452.37Zm.33-193c.31,32.07.6,64.08.91,96.63a17.59,17.59,0,0,1-3.33-1q-38.74-22.91-77.48-45.86c-2.1-1.25-3.21-2.61-3.22-5.23-.18-30.38-.48-60.76-.72-91.15a26.68,26.68,0,0,1,.37-2.82C1930.6,226.61,1958.11,242.91,1985.9,259.4Zm1.4-195.51c-.29,30-.66,59.94-1,89.91a5.64,5.64,0,0,1-3,5.42q-39.52,23.16-79,46.45a15,15,0,0,1-1.87.57c-.11-1.88-.26-3.31-.24-4.72.32-29.24.69-58.47.94-87.72,0-2.91.88-4.72,3.48-6.24q38.57-22.59,77-45.38c.79-.47,1.64-.82,2.85-1.41A13.35,13.35,0,0,1,1987.3,63.89Zm-165-8.82c25-14,50.07-28,75-42.21,3.15-1.78,5.45-1.78,8.62,0,25,14.34,50.23,28.48,75.35,42.68,1.39.79,2.66,1.78,4.45,3-1.89,1.2-3.2,2.14-4.6,2.93-25,14.08-50.05,28.07-75,42.27-3.5,2-6.12,1.94-9.61-.06-24.88-14.26-49.9-28.31-74.86-42.42-1.38-.79-2.65-1.78-4.68-3.15C1819.23,56.84,1820.77,55.93,1822.32,55.07Zm-6.4,5.78a15,15,0,0,1,3.15.95q38.75,22.92,77.43,45.84c2.11,1.24,3.2,2.62,3.21,5.22q.29,45.55.73,91.08a19.08,19.08,0,0,1-.39,2.51c-2-1-3.46-1.68-4.84-2.49-24.86-14.73-49.66-29.51-74.58-44.14-2.84-1.67-4.16-3.42-4.17-6.91-.12-29.25-.45-58.51-.72-87.76C1815.74,63.87,1815.85,62.59,1815.92,60.85Zm2.46,101.66c25.71,14.69,51.51,29.2,77.28,43.76.93.53,1.78,1.2,3.19,2.17-1.68,1.16-2.91,2.15-4.26,2.9q-38,21.38-76,42.75c-2.61,1.47-4.73,2-7.63.32-25.72-14.69-51.52-29.21-77.29-43.77-.93-.53-1.78-1.21-3.56-2.44,2.06-1.19,3.33-1.95,4.61-2.65q38-21.35,76-42.71C1813.33,161.36,1815.46,160.85,1818.38,162.51Zm-4.44-97.07c-.33,29-.7,58.09-1,87.15,0,3-.62,5.11-3.51,6.81-25.74,15-51.39,30.18-77.08,45.31-.77.46-1.64.79-2.89,1.39a25,25,0,0,1-.61-3.8c.3-29.61.69-59.21,1-88.81,0-2.61.63-4.48,3.08-5.92q39.3-23,78.48-46.2a18.54,18.54,0,0,1,2.26-.87C1813.79,62.56,1814,64,1813.94,65.44ZM1648.8,55.38c24.87-14,49.79-27.89,74.55-42.06,3.74-2.12,6.46-2,10.13.08,24.74,14.19,49.62,28.14,74.44,42.19,1.42.8,2.78,1.73,4.65,2.9a24.06,24.06,0,0,1-3.09,2.52q-38.76,21.81-77.53,43.57c-2.29,1.31-4.22,1.67-6.66.28q-39.37-22.39-78.81-44.65c-.62-.35-1.16-.87-2.62-2Zm77.46,54.19c.29,32.19.59,64.11.89,97.32-28.46-16.87-55.91-33.14-83.72-49.6-.29-32-.59-64-.89-97.35ZM1644.37,162q39.57,22.5,79.2,44.89a19.44,19.44,0,0,1,2,1.76c-2.09,1.2-3.65,2.11-5.22,3-24.68,13.9-49.41,27.7-74,41.73-3.61,2.05-6.32,2.3-10.12.12-24.85-14.31-49.87-28.31-74.83-42.44-1.27-.71-2.46-1.56-4.15-2.65a19.36,19.36,0,0,1,2.53-2.14q39.2-22.06,78.42-44.1C1640.34,160.93,1642.14,160.69,1644.37,162Zm-3.58-96.77q-.48,43.89-1,87.79c0,3-.72,5.07-3.59,6.75-25.44,14.87-50.76,29.9-76.13,44.87-1.07.63-2.23,1.1-4.11,2-.13-2.18-.29-3.47-.27-4.74.32-29.26.73-58.52.94-87.79a7.21,7.21,0,0,1,4.08-7q37.9-22.12,75.68-44.53c1.07-.63,2.24-1.1,3.9-1.92A42.17,42.17,0,0,1,1640.79,65.2Zm-166.72-9.29c25.5-14.36,51-28.64,76.51-43.08,3.08-1.76,5.44-1.95,8.65-.1,25.23,14.43,50.59,28.67,75.89,43,1.24.71,2.4,1.58,4.49,3-4.69,2.69-8.49,4.94-12.34,7.1-22.29,12.53-44.63,25-66.83,37.61-3.78,2.16-6.64,2.46-10.59.18-24.39-14.08-48.95-27.82-73.45-41.69-1.74-1-3.45-2-5.68-3.3A28.69,28.69,0,0,1,1474.07,55.91Zm-4.61,4.36c2.16,1.13,3.78,1.87,5.31,2.78,24.55,14.53,49,29.17,73.68,43.57,3.46,2,4.81,4.19,4.82,8.26.08,28.53.42,57.07.67,85.59,0,1.79-.14,3.59-.23,6.06-2.17-1.14-3.79-1.89-5.31-2.78-24.55-14.54-49.05-29.17-73.69-43.57-3.46-2-4.79-4.21-4.8-8.27-.08-28.52-.42-57-.67-85.6C1469.22,64.54,1469.36,62.75,1469.46,60.27Zm3.71,102.9c24.71,14.21,49.6,28.15,74.42,42.2,1.44.81,2.81,1.72,4.63,2.85a14.6,14.6,0,0,1-2.4,2.29q-39.22,22.1-78.47,44.13a5.65,5.65,0,0,1-6.19.09q-39.62-22.51-79.26-44.93a21.06,21.06,0,0,1-2-1.59c1.85-1.21,3.15-2.15,4.56-2.94,24.86-14,49.77-27.9,74.54-42C1466.7,161.14,1469.41,161,1473.17,163.17Zm-5.76-97.73c-.3,29.07-.67,58.15-.94,87.22,0,3-.58,5.1-3.5,6.8-25.59,14.94-51.09,30.06-76.63,45.11-.92.55-1.93,1-3.81,1.88-.06-2.76-.16-4.57-.14-6.37.32-28.34.73-56.67.88-85,0-4.19,1.2-6.64,5-8.84,25-14.48,49.84-29.26,74.74-43.93,1.09-.64,2.27-1.11,4-1.94C1467.18,62.36,1467.43,63.9,1467.41,65.44ZM1300.94,56.5Q1321.3,45,1341.65,33.63v-.32q18.16-10.2,36.3-20.4c2.63-1.49,4.74-1.95,7.65-.3,25.7,14.68,51.52,29.19,77.28,43.77.93.53,1.77,1.2,3.16,2.17-1.53,1.07-2.62,2-3.81,2.63q-38.24,21.5-76.47,43c-2.63,1.48-4.75,1.92-7.64.27q-18.21-10.39-36.47-20.7v-.09q-20.25-11.46-40.49-22.93c-.94-.51-1.76-1.21-3.11-2.15A32.8,32.8,0,0,1,1300.94,56.5Zm19.44,17.84c19.9,11.81,39.61,23.49,59.37,35.19.29,32.12.58,64.08.88,97.33L1360.71,195q-9.54-5.64-19.06-11.3v-.13l-42.38-25.12a6.94,6.94,0,0,1-2-3.11q-.43-46.78-.87-93.81C1299.15,62.56,1308.6,67.66,1320.38,74.34Zm-25.21,87.33a11.59,11.59,0,0,1,5.11,1.72q20.33,11.76,40.82,23.26v-.19l33.75,19.06c1.25.71,2.43,1.58,4.54,2.95C1375,211,1371.55,213,1368,215q-22.14,12.45-44.28,24.89-12.35,6.94-24.69,13.89c-2.32,1.2-4.33,1.61-6.61.89a7.91,7.91,0,0,1-1-.42c-25.74-14.69-51.55-29.22-77.34-43.82-1-.52-1.79-1.2-3.39-2.31,2-1.26,3.15-2.12,4.41-2.83,24.69-13.9,49.45-27.69,74-41.77A11.83,11.83,0,0,1,1295.17,161.67Zm-1.08-97.78q-.45,45-1,89.91a9.63,9.63,0,0,1-.09,1,8.06,8.06,0,0,1-3.88,5q-39,22.88-78,45.87a7.88,7.88,0,0,1-1.32.41c-.11-1.79-.25-3.19-.23-4.56.32-29.24.69-58.47.94-87.72,0-2.91.88-4.72,3.48-6.24q38.57-22.59,77-45.38c.67-.4,1.43-.73,2.36-1.18A11.47,11.47,0,0,1,1294.09,63.89ZM1125,57.75c1.87-1.07,3.27-1.9,4.67-2.68,25-14,50.07-28,75-42.21a8.54,8.54,0,0,1,4.13-1.26,8.84,8.84,0,0,1,3.93,1.29c25,14.34,50.23,28.48,75.35,42.68,1.39.79,2.66,1.78,4.45,3-1.89,1.2-3.2,2.14-4.6,2.93-25,14.08-50,28.07-75,42.27a13,13,0,0,1-1.94.87,10.21,10.21,0,0,1-1.25.35l-.21,0a7.3,7.3,0,0,1-3.21-.2,12.93,12.93,0,0,1-2.44-1.11C1179,89.41,1154,75.36,1129.06,61.25c-1.37-.78-2.63-1.77-4.63-3.11ZM1123.25,61a10.2,10.2,0,0,1,2.6.82q38.75,22.92,77.43,45.84a5.74,5.74,0,0,1,3,3.43l0,.06a7.45,7.45,0,0,1,.21,1.73c.18,30.37.48,60.72.72,91.08a15.62,15.62,0,0,1-.34,2.25c-1.71-.86-3.08-1.5-4.33-2.23-24.86-14.73-49.66-29.51-74.58-44.14-2.84-1.67-4.16-3.42-4.17-6.91-.12-29.25-.45-58.51-.71-87.76C1123.09,63.91,1123.18,62.65,1123.25,61Zm-1.61,100.55a6,6,0,0,1,.93.08,4.69,4.69,0,0,1,.64.09,7.64,7.64,0,0,1,2,.81c25.71,14.69,51.51,29.2,77.28,43.76.91.52,1.76,1.18,3.12,2.12l-.86.71a36,36,0,0,1-3.33,2.24q-38,21.38-76,42.75a10.34,10.34,0,0,1-2.92,1.15c-.24,0-.48.12-.72.14a6.15,6.15,0,0,1-.73-.06,4.86,4.86,0,0,1-.74-.1,8.08,8.08,0,0,1-2-.81c-25.72-14.69-51.52-29.21-77.29-43.77-.93-.53-1.78-1.21-3.56-2.44,2.06-1.19,3.33-1.95,4.61-2.65q38-21.35,76-42.71A9.39,9.39,0,0,1,1121.64,161.53Zm-.92-96.09c-.33,29-.7,58.09-1,87.15a7.73,7.73,0,0,1-1.37,4.91,6.05,6.05,0,0,1-.51.65,10.21,10.21,0,0,1-.86.66,10.83,10.83,0,0,1-1,.7c-25.61,14.92-51.12,30-76.68,45.08-.59.32-1.25.65-2,1l-.59.27a21.42,21.42,0,0,1-.56-3.57c.3-29.61.69-59.21,1-88.81,0-2.61.63-4.48,3.08-5.92q39.3-23,78.48-46.2a10.25,10.25,0,0,1,1.72-.67C1120.59,62.65,1120.73,64.06,1120.72,65.44ZM956.14,55.38c24.87-14,49.79-27.89,74.55-42.06a9.78,9.78,0,0,1,5-1.47,10.59,10.59,0,0,1,4.6,1.55c24.74,14.19,49.62,28.14,74.44,42.19,1.43.8,2.79,1.73,4.65,2.9a24.06,24.06,0,0,1-3.09,2.52q-38.76,21.81-77.52,43.57c-.34.19-.66.31-1,.46a6.24,6.24,0,0,1-4,.29,6.54,6.54,0,0,1-1.12-.47q-39.36-22.39-78.81-44.65c-.62-.35-1.16-.87-2.62-2Zm-2,7.41L1033,109.57c.3,32.08.6,63.89.89,97-28.26-16.75-55.54-32.92-83.16-49.27-.29-31.83-.59-63.67-.89-96.89C951.32,61.19,952.71,62,954.13,62.79Zm-3.94,98.77a7.09,7.09,0,0,1,1,.41q39.58,22.5,79.2,44.89a13.58,13.58,0,0,1,1.69,1.46,22.34,22.34,0,0,1-2.82,2.11l-14.09,7.94q-21.51,12.1-43,24.24-9.93,5.59-19.87,11.2a10.18,10.18,0,0,1-3.82,1.16,9.77,9.77,0,0,1-4.86-1.5c-24.84-14.31-49.87-28.31-74.84-42.44-1.26-.71-2.45-1.56-4.14-2.65a19.36,19.36,0,0,1,2.53-2.14q39.2-22.06,78.42-44.1a10.85,10.85,0,0,1,1.36-.63A6.41,6.41,0,0,1,950.19,161.56ZM947.58,65.2c-.32,29.26-.69,58.52-1,87.79a10.2,10.2,0,0,1-.49,3.08,7.58,7.58,0,0,1-2.48,3.19c-.17.12-.29.25-.47.36l-.42.27c-25.35,14.82-50.59,29.8-75.87,44.72-1,.57-2,1-3.57,1.73-.12-2-.26-3.27-.25-4.49.32-29.26.73-58.52.94-87.79a7.21,7.21,0,0,1,4.08-7Q906,84.89,943.78,62.48c.94-.55,2-1,3.37-1.67A38.62,38.62,0,0,1,947.58,65.2ZM781.41,55.91c25.5-14.36,51.05-28.64,76.51-43.08a9.3,9.3,0,0,1,4-1.36,8.3,8.3,0,0,1,4,1.26c25.24,14.43,50.59,28.67,75.89,43,1.13.64,2.22,1.44,4,2.6a20.92,20.92,0,0,1-2,1.79l-5,2.92-21.8,12.28q-24.94,14-49.83,28.07a11.46,11.46,0,0,1-5.07,1.74,10.21,10.21,0,0,1-5-1.56c-24.39-14.08-49-27.82-73.45-41.69-1.74-1-3.45-2-5.68-3.3A28.69,28.69,0,0,1,781.41,55.91Zm-4.62,4.64c1.87,1,3.37,1.68,4.76,2.5,24.55,14.53,49,29.17,73.68,43.57,3.46,2,4.82,4.19,4.82,8.26.08,28.53.43,57.07.68,85.59,0,1.72-.14,3.46-.23,5.78-1.87-1-3.38-1.69-4.76-2.5-24.55-14.54-49-29.17-73.69-43.57-3.46-2-4.79-4.21-4.8-8.27-.08-28.52-.42-57-.67-85.6C776.56,64.61,776.69,62.88,776.79,60.55Zm-1.64,101.11a10.06,10.06,0,0,1,4.8,1.51c24.71,14.21,49.6,28.15,74.43,42.2,1.43.81,2.8,1.72,4.62,2.85a14.6,14.6,0,0,1-2.4,2.29q-39.21,22.1-78.47,44.13a6.9,6.9,0,0,1-2.85.93,6,6,0,0,1-2.78-.84q-39.62-22.51-79.26-44.93a21.06,21.06,0,0,1-2-1.59c1.85-1.21,3.15-2.15,4.56-2.94,24.86-14,49.77-27.9,74.54-42A10.57,10.57,0,0,1,775.15,161.66Zm-1-96.22c-.3,29.07-.67,58.15-.94,87.22,0,3-.58,5.1-3.49,6.8-25.6,14.94-51.1,30.06-76.63,45.11-.83.49-1.75.89-3.27,1.61-.06-2.6-.15-4.36-.13-6.1.32-28.34.73-56.67.88-85,0-4.19,1.2-6.64,5-8.84,25-14.48,49.84-29.26,74.74-43.93,1-.57,2.06-1,3.5-1.7C774,62.48,774.21,64,774.19,65.44ZM607.62,56.57l1.67-1,11.05-6.21q14-7.89,28.1-15.78h0q18.42-10.35,36.85-20.71a9.25,9.25,0,0,1,3.56-1.29,6.79,6.79,0,0,1,3.53,1c25.7,14.68,51.52,29.19,77.28,43.77.94.53,1.77,1.2,3.17,2.17-1.54,1.07-2.63,2-3.82,2.63q-38.22,21.5-76.46,43a9.34,9.34,0,0,1-3.57,1.27,6.75,6.75,0,0,1-3.52-1c-25.71-14.68-51.52-29.19-77.28-43.76-.88-.5-1.7-1.15-3.22-2.21A32.58,32.58,0,0,1,607.62,56.57Zm-4,5c1.8.61,7,3.31,14.11,7.22,23.16,13.74,45.92,27.23,68.8,40.78.29,32,.58,63.87.88,97L668,195c-19.76-11.72-39.49-23.49-59.32-35.06-3.25-1.88-4.61-3.95-4.62-7.82-.1-28.53-.43-57-.68-85.58C603.41,65.12,603.52,63.62,603.62,61.53ZM604.36,162a12,12,0,0,1,1.87.83c25.07,14.36,50.26,28.5,75.4,42.72,1.25.71,2.43,1.58,4.54,2.95-4.36,2.51-7.84,4.56-11.34,6.54-22.77,12.8-45.58,25.53-68.29,38.45a10,10,0,0,1-5.16,1.56,9.87,9.87,0,0,1-3.88-1.37c-24.89-14.28-49.94-28.32-74.92-42.44-1.42-.81-2.77-1.75-4.67-2.94a37.24,37.24,0,0,1,3.73-2.77c25.12-14.15,50.3-28.22,75.39-42.48l.41-.2c.32-.18.62-.29.92-.43A9,9,0,0,1,604.36,162ZM600.75,61c.15,2,.31,3.49.29,4.92-.31,28.68-.74,57.36-.89,86,0,4-1.33,6.28-4.8,8.31-24.47,14.24-48.82,28.71-73.22,43.1l-4.6,2.66-.71.2c-.1-2.38-.24-4.06-.23-5.72.32-28.49.74-57,.89-85.49,0-4,1.37-6.27,4.82-8.28C546.77,92.44,571.12,78,595.5,63.57l2.87-1.67c.66-.34,1.37-.66,2.32-1.13ZM435.63,55.57Q450.92,47,466.19,38.38q7.37-4.12,14.73-8.28c10.39-5.85,20.8-11.66,31.17-17.54.42-.23.79-.36,1.18-.53a6.73,6.73,0,0,1,4.4-.18,10.09,10.09,0,0,1,1.5.67q38.1,21.74,76.32,43.22c1.24.7,2.37,1.59,4.24,2.88-2.18,1.25-3.71,2.15-5.24,3-24.85,14-49.74,27.88-74.51,42a9.43,9.43,0,0,1-4.67,1.41,9.85,9.85,0,0,1-4.37-1.42C486.05,89.34,461,75.31,436.08,61.18c-1.4-.77-2.68-1.75-4.46-2.94C433.27,57.13,434.4,56.25,435.63,55.57Zm-5.27,5.35,1.26.32c.93.43,1.78.83,2.54,1.28q37.74,22.33,75.53,44.68a6.69,6.69,0,0,1,3.78,6.58c.16,29.24.48,58.5.74,87.75,0,1.34-.19,2.71-.34,4.53-1.49-.7-2.7-1.21-3.76-1.84q-37.77-22.38-75.54-44.7a6.73,6.73,0,0,1-3.79-6.56c-.15-29.27-.46-58.51-.72-87.76C430.06,63.94,430.22,62.62,430.36,60.92Zm-1.66,100.6a7.61,7.61,0,0,1,3.79,1.13c25.38,14.5,50.87,28.83,76.32,43.24,1.1.61,2.13,1.36,3.69,2.37a31.47,31.47,0,0,1-3.09,2.41Q470.68,232.45,432,254.23a7.88,7.88,0,0,1-3.32,1.12,6.92,6.92,0,0,1-3.28-1q-38.82-22.11-77.77-44c-.77-.44-1.47-1-3.16-2.23,2.15-1.24,3.56-2.06,5-2.86Q387.2,184,424.93,162.8a13.15,13.15,0,0,1,2-.91c.17-.06.34-.07.51-.12A6.53,6.53,0,0,1,428.7,161.52Zm-1-96.17c-.32,29.05-.71,58.1-.92,87.15,0,3.37-1.09,5.36-4,7.08-25.42,14.83-50.75,29.82-76.11,44.76-.82.48-1.74.89-2.88,1.45a19.78,19.78,0,0,1-.57-3.56q.48-44.41,1-88.84c0-2.59.63-4.44,3.08-5.89q39.28-23,78.47-46.2a17.57,17.57,0,0,1,1.72-.66C427.54,62.57,427.7,64,427.68,65.35ZM262.75,55.51c25-14.09,50.09-28.09,75.05-42.3a13.43,13.43,0,0,1,2-.92,9.82,9.82,0,0,1,1.33-.37h.08a7.8,7.8,0,0,1,3.42.22,11.64,11.64,0,0,1,2.24,1c24.89,14.28,49.94,28.32,74.92,42.46,1.42.79,2.74,1.74,4.63,2.94a45.91,45.91,0,0,1-3.78,2.77q-38.28,21.49-76.56,43a8.26,8.26,0,0,1-3.67,1.19,7.47,7.47,0,0,1-3.43-1.06q-38.61-22-77.35-43.8c-.92-.51-1.75-1.23-3.51-2.48C260.23,56.93,261.48,56.21,262.75,55.51Zm35.58,29.3C312.2,93,326,101.21,340,109.52c.28,32,.58,63.85.88,97l-83.15-49.27c-.3-31.84-.6-63.71-.91-96.71C271.38,68.46,284.76,76.83,298.33,84.81Zm-43.12,76.51a7.47,7.47,0,0,1,3.9,1.11C284.5,177,310,191.27,335.43,205.68c1,.57,2.05,1.28,3.47,2.2l.21.2a26.44,26.44,0,0,1-3.11,2.35c-25.79,14.57-51.63,29-77.4,43.63a10.85,10.85,0,0,1-1.58.72,7.75,7.75,0,0,1-4-.16,9.59,9.59,0,0,1-1.06-.47q-15.75-9-31.54-17.86v.15Q198,223.72,175.53,211c-1.27-.71-2.46-1.56-4.15-2.65a19.38,19.38,0,0,1,2.54-2.14q38.81-21.84,77.64-43.66A9.16,9.16,0,0,1,255.21,161.32Zm-.93-100.64c.11,2.25.27,4,.25,5.65-.31,28.54-.71,57-.9,85.57,0,3.94-1.15,6.33-4.68,8.39-9.7,5.65-19.37,11.37-29,17.08v.28l-45.66,27c-1.07.63-2.23,1.1-4.11,2-.13-2.18-.28-3.47-.27-4.74.32-29.26.73-58.52.94-87.79a7.21,7.21,0,0,1,4.08-7q22.83-13.32,45.58-26.77h0l29.43-17.32C251.14,62.2,252.49,61.57,254.28,60.68ZM88.19,55.91c25.5-14.36,51.05-28.64,76.51-43.08,3.09-1.76,5.44-1.95,8.65-.1Q196.59,26,219.9,39.14v.1l28.33,16c1.42.8,2.8,1.72,4.63,2.85a16.41,16.41,0,0,1-2.5,2.25Q235.14,69,219.9,77.52v.3q-22.69,12.72-45.34,25.56c-3.78,2.16-6.63,2.46-10.59.18C139.58,89.48,115,75.74,90.52,61.87c-1.73-1-3.44-2-5.68-3.3A29.56,29.56,0,0,1,88.19,55.91Zm-4.61,4.36c2.16,1.13,3.78,1.87,5.31,2.78,24.55,14.53,49,29.17,73.68,43.57,3.46,2,4.81,4.19,4.82,8.26.08,28.53.43,57.07.68,85.59,0,1.79-.15,3.59-.24,6.06-2.16-1.14-3.79-1.89-5.31-2.78-24.55-14.54-49.05-29.17-73.69-43.57-3.45-2-4.78-4.21-4.79-8.27-.09-28.52-.43-57-.68-85.6C83.34,64.54,83.48,62.75,83.58,60.27Zm3.71,102.9c24.71,14.21,49.6,28.15,74.43,42.2,1.43.81,2.8,1.72,4.62,2.85a14.6,14.6,0,0,1-2.4,2.29q-39.21,22.1-78.47,44.13a5.64,5.64,0,0,1-6.18.09Q39.67,232.22,0,209.8a21.06,21.06,0,0,1-2-1.59c1.85-1.21,3.15-2.15,4.56-2.94,24.86-14,49.77-27.9,74.55-42C80.83,161.14,83.53,161,87.29,163.17ZM81.53,65.44c-.3,29.07-.67,58.15-.94,87.22,0,3-.58,5.1-3.49,6.8C51.5,174.4,26,189.52.47,204.57c-.93.55-1.94,1-3.82,1.88-.06-2.76-.16-4.57-.14-6.37.32-28.34.74-56.67.88-85,0-4.19,1.21-6.64,5-8.84C27.36,91.75,52.19,77,77.09,62.3c1.09-.64,2.27-1.11,4-1.94C81.3,62.36,81.55,63.9,81.53,65.44ZM-83.93,55.62q38-21.34,76-42.71c2.63-1.49,4.75-1.95,7.65-.3C25.42,27.29,51.24,41.8,77,56.38c.94.53,1.77,1.2,3.17,2.17-1.54,1.07-2.63,2-3.82,2.63q-38.22,21.5-76.46,43c-2.64,1.48-4.76,1.92-7.65.27C-33.47,89.79-59.27,75.28-85,60.71c-.94-.54-1.78-1.22-3.52-2.42C-86.47,57.08-85.21,56.33-83.93,55.62Zm-5.59,4.47c28.25,16.77,55.71,33.05,83.39,49.44.29,32.12.58,64.08.88,97.33L-25.17,195C-44.93,183.32-64.67,171.55-84.5,160c-3.25-1.88-4.61-3.95-4.62-7.82-.09-28.53-.43-57-.68-85.58C-89.81,64.79-89.65,63-89.52,60.09Z"/></g></g><g id="OBJECTS"><path class="cls-4" d="M1460.69,167.46,460,169.18l1.73,1006.75,1000.69-1.72c17.46,0,31.61-10.18,31.58-22.68L1492.35,190C1492.33,177.53,1478.15,167.43,1460.69,167.46Z"/><path class="cls-5" d="M1460.65,149.82l-33.46.05L485.8,152.42l-1.7-.93-24.13,0,1.73,1006.75,1000.68-1.72c17.47,0,31.62-10.19,31.59-22.68l-1.65-961.5C1492.3,159.89,1478.12,149.79,1460.65,149.82Z"/><path class="cls-6" d="M520.48,151.52H477.05l4.38,984.14,947.49.21c18.25,0,33-10.53,32.95-23.52l-4.1-921.4Z"/><path class="cls-1" d="M1424.54,151.72l-947.49-.21,4.21,944.93,947.48.21c18.26,0,33-10.52,33-23.51l-4-897.89C1457.64,162.26,1442.79,151.73,1424.54,151.72Zm-899.95,923.4h-18.5l-.14-32.26h18.5Zm-.24-54.37h-18.5l-.14-32.26h18.5Zm-.24-54.38h-18.5l-.14-32.26H524ZM523.87,912h-18.5l-.15-32.26h18.5Zm-.25-54.38H505.13L505,825.35h18.5Zm-.24-54.38h-18.5L504.74,771h18.5Zm-.24-54.38h-18.5l-.14-32.25H523Zm-.24-54.38H504.4l-.14-32.26h18.5Zm-.24-54.37h-18.5L504,607.85h18.49Zm-.24-54.38h-18.5l-.15-32.26h18.5Zm-.25-54.38h-18.5l-.14-32.26H522ZM521.93,477h-18.5l-.14-32.25h18.5Zm-.24-54.38h-18.5l-.14-32.26h18.5Zm-.24-54.37H503L502.8,336h18.5Zm-.24-54.38h-18.5l-.15-32.26h18.5ZM521,259.47H502.47l-.15-32.26h18.5Zm-.24-54.37h-18.5l-.14-32.25h18.5Z"/><rect class="cls-7" x="437.15" y="179.04" width="64.82" height="7.17" transform="translate(-0.32 0.81) rotate(-0.1)"/><rect class="cls-7" x="437.18" y="191.93" width="64.82" height="7.18" transform="translate(-0.33 0.81) rotate(-0.1)"/><rect class="cls-7" x="437.25" y="233.41" width="64.82" height="7.17" transform="translate(-0.41 0.82) rotate(-0.1)"/><rect class="cls-7" x="437.27" y="246.3" width="64.82" height="7.17" transform="translate(-0.43 0.81) rotate(-0.1)"/><rect class="cls-7" x="437.34" y="287.77" width="64.82" height="7.18" transform="translate(-0.5 0.81) rotate(-0.1)"/><rect class="cls-7" x="437.36" y="300.67" width="64.82" height="7.17" transform="translate(-0.52 0.81) rotate(-0.1)"/><rect class="cls-7" x="437.43" y="342.14" width="64.82" height="7.17" transform="translate(-0.59 0.81) rotate(-0.1)"/><rect class="cls-7" x="437.46" y="355.03" width="64.82" height="7.17" transform="translate(-0.61 0.81) rotate(-0.1)"/><rect class="cls-7" x="437.53" y="396.51" width="64.82" height="7.17" transform="translate(-0.69 0.81) rotate(-0.1)"/><rect class="cls-7" x="437.55" y="409.4" width="64.82" height="7.18" transform="translate(-0.71 0.81) rotate(-0.1)"/><rect class="cls-7" x="437.62" y="450.87" width="64.82" height="7.17" transform="translate(-0.78 0.81) rotate(-0.1)"/><rect class="cls-7" x="437.64" y="463.76" width="64.82" height="7.17" transform="translate(-0.8 0.81) rotate(-0.1)"/><rect class="cls-7" x="437.71" y="505.24" width="64.82" height="7.17" transform="translate(-0.87 0.81) rotate(-0.1)"/><rect class="cls-7" x="437.74" y="518.13" width="64.82" height="7.18" transform="translate(-0.9 0.81) rotate(-0.1)"/><rect class="cls-7" x="437.81" y="559.61" width="64.82" height="7.17" transform="translate(-0.96 0.8) rotate(-0.1)"/><rect class="cls-7" x="437.83" y="572.5" width="64.82" height="7.18" transform="translate(-1.01 0.83) rotate(-0.1)"/><rect class="cls-7" x="437.9" y="613.97" width="64.82" height="7.18" transform="translate(-1.05 0.8) rotate(-0.1)"/><rect class="cls-7" x="437.92" y="626.86" width="64.82" height="7.18" transform="translate(-1.06 0.79) rotate(-0.1)"/><rect class="cls-7" x="437.99" y="668.34" width="64.82" height="7.18" transform="translate(-1.18 0.83) rotate(-0.1)"/><rect class="cls-7" x="438.02" y="681.23" width="64.82" height="7.17" transform="translate(-1.18 0.81) rotate(-0.1)"/><rect class="cls-7" x="438.09" y="722.7" width="64.82" height="7.18" transform="translate(-1.26 0.81) rotate(-0.1)"/><rect class="cls-7" x="438.11" y="735.59" width="64.82" height="7.17" transform="translate(-1.3 0.83) rotate(-0.1)"/><rect class="cls-7" x="438.18" y="777.07" width="64.82" height="7.17" transform="translate(-1.33 0.8) rotate(-0.1)"/><rect class="cls-7" x="438.2" y="789.96" width="64.82" height="7.18" transform="translate(-1.39 0.83) rotate(-0.1)"/><rect class="cls-7" x="438.27" y="831.44" width="64.82" height="7.18" transform="translate(-1.4 0.79) rotate(-0.1)"/><rect class="cls-7" x="438.3" y="844.33" width="64.82" height="7.18" transform="translate(-1.44 0.8) rotate(-0.1)"/><rect class="cls-7" x="438.37" y="885.8" width="64.82" height="7.18" transform="translate(-1.51 0.8) rotate(-0.1)"/><rect class="cls-7" x="438.39" y="898.69" width="64.82" height="7.17" transform="translate(-1.53 0.8) rotate(-0.1)"/><rect class="cls-7" x="438.46" y="940.17" width="64.82" height="7.18" transform="translate(-1.66 0.83) rotate(-0.1)"/><rect class="cls-7" x="438.48" y="953.06" width="64.82" height="7.18" transform="translate(-1.63 0.8) rotate(-0.1)"/><rect class="cls-7" x="438.56" y="994.54" width="64.82" height="7.17" transform="translate(-1.78 0.84) rotate(-0.1)"/><rect class="cls-7" x="438.58" y="1007.42" width="64.82" height="7.18" transform="translate(-1.69 0.79) rotate(-0.1)"/><rect class="cls-7" x="438.65" y="1048.9" width="64.82" height="7.17" transform="matrix(1, 0, 0, 1, -1.76, 0.79)"/><rect class="cls-7" x="438.67" y="1061.79" width="64.82" height="7.18" transform="translate(-1.84 0.82) rotate(-0.1)"/><path class="cls-8" d="M1459.17,328.94l.15,86.07a43,43,0,0,0-.15-86.07Z"/><path class="cls-9" d="M1461.16,810.71l.15,84.36a42.18,42.18,0,0,0-.15-84.36Z"/><rect class="cls-6" x="539.23" y="207.28" width="886.03" height="1.11" transform="translate(-0.36 1.69) rotate(-0.1)"/><rect class="cls-6" x="539.29" y="239.27" width="886.03" height="1.1" transform="translate(-0.41 1.69) rotate(-0.1)"/><polygon class="cls-6" points="1425.38 271.59 539.35 273.11 539.34 272.01 1425.37 270.48 1425.38 271.59"/><rect class="cls-6" x="539.4" y="303.23" width="886.03" height="1.1" transform="translate(-0.52 1.69) rotate(-0.1)"/><rect class="cls-6" x="539.45" y="335.21" width="886.03" height="1.11" transform="translate(-0.58 1.69) rotate(-0.1)"/><rect class="cls-6" x="539.51" y="367.19" width="886.03" height="1.11" transform="translate(-0.63 1.69) rotate(-0.1)"/><rect class="cls-6" x="539.56" y="399.17" width="886.03" height="1.1" transform="translate(-0.69 1.69) rotate(-0.1)"/><rect class="cls-6" x="539.62" y="431.15" width="886.03" height="1.1" transform="translate(-0.74 1.69) rotate(-0.1)"/><rect class="cls-6" x="539.67" y="463.13" width="886.03" height="1.1" transform="translate(-0.8 1.69) rotate(-0.1)"/><polygon class="cls-6" points="1425.76 495.45 539.73 496.97 539.73 495.87 1425.76 494.35 1425.76 495.45"/><rect class="cls-6" x="539.78" y="527.09" width="886.03" height="1.11" transform="translate(-0.91 1.69) rotate(-0.1)"/><rect class="cls-6" x="539.84" y="559.07" width="886.03" height="1.1" transform="translate(-0.96 1.69) rotate(-0.1)"/><rect class="cls-6" x="539.89" y="591.05" width="886.03" height="1.1" transform="translate(-1.01 1.69) rotate(-0.1)"/><polygon class="cls-6" points="1425.98 623.37 539.95 624.89 539.95 623.79 1425.98 622.27 1425.98 623.37"/><rect class="cls-6" x="540" y="655.01" width="886.03" height="1.1" transform="translate(-1.13 1.69) rotate(-0.1)"/><rect class="cls-6" x="540.06" y="686.99" width="886.03" height="1.1" transform="translate(-1.18 1.69) rotate(-0.1)"/><polygon class="cls-6" points="1426.15 719.31 540.11 720.83 540.11 719.73 1426.14 718.21 1426.15 719.31"/><polygon class="cls-6" points="1426.2 751.29 540.17 752.81 540.17 751.71 1426.19 750.18 1426.2 751.29"/><rect class="cls-6" x="540.22" y="782.93" width="886.03" height="1.1" transform="translate(-1.34 1.69) rotate(-0.1)"/><polygon class="cls-6" points="1426.31 815.25 540.28 816.77 540.28 815.67 1426.31 814.14 1426.31 815.25"/><polygon class="cls-6" points="1426.36 847.23 540.33 848.75 540.33 847.65 1426.36 846.12 1426.36 847.23"/><polygon class="cls-6" points="1426.42 879.2 540.39 880.73 540.38 879.62 1426.42 878.1 1426.42 879.2"/><polygon class="cls-6" points="1426.47 911.18 540.44 912.71 540.44 911.61 1426.47 910.08 1426.47 911.18"/><rect class="cls-6" x="540.5" y="942.82" width="886.03" height="1.1" transform="translate(-1.62 1.7) rotate(-0.1)"/><polygon class="cls-6" points="1426.59 975.14 540.55 976.66 540.55 975.56 1426.58 974.04 1426.59 975.14"/><polygon class="cls-6" points="1426.64 1007.12 540.61 1008.64 540.61 1007.54 1426.64 1006.02 1426.64 1007.12"/><polygon class="cls-6" points="1426.7 1039.1 540.66 1040.62 540.66 1039.52 1426.69 1038 1426.7 1039.1"/></g></svg>